<?xml version="1.0" encoding="UTF-8"?>
<svg id="Lager_1" xmlns="http://www.w3.org/2000/svg" version="1.1" viewBox="0 0 1133.57 434.38">
  <!-- Generator: Adobe Illustrator 29.8.6, SVG Export Plug-In . SVG Version: 2.1.1 Build 1)  -->
  <path d="M31.44,2c-3.41,2.08-5.86,4.63-7.34,7.67-1.48,3.04-1.41,6.71.22,11.01.89,2.08,2.26,4.08,4.11,6,1.85,1.93,4.04,3.89,6.56,5.89,2.52,2,5.23,4.15,8.12,6.45,2.89,2.3,5.67,4.86,8.34,7.67,2.96-2.67,6.41-5.86,10.34-9.56,3.93-3.7,7.75-7.26,11.45-10.67V4.45h2.22v19.79c1.93-1.63,3.63-3.19,5.11-4.67s2.81-2.74,4-3.78c1.48-1.33,2.74-2.52,3.78-3.56l.22-.22c2.96.45,6.56.86,10.79,1.22,4.23.37,8.49.56,12.79.56,2.81,0,5.45-.07,7.89-.22,2.45-.15,4.63-.52,6.56-1.11v21.35c2.67-2.22,5.85-4.78,9.56-7.67,3.7-2.89,7.41-5.67,11.12-8.34,3.7-2.67,7.04-4.93,10.01-6.78,2.96-1.85,4.97-2.78,6-2.78.89,0,2.45.93,4.67,2.78,2.22,1.86,4.71,3.93,7.45,6.23,2.74,2.3,5.63,4.37,8.67,6.23,3.04,1.86,5.82,2.78,8.34,2.78,2.67,0,4.97-.67,6.89-2l-4.67,5.78c-2.52,4.45-4.67,10.04-6.45,16.79-1.78,6.75-3.22,13.79-4.34,21.13-1.11,7.34-1.89,14.42-2.33,21.24-.44,6.82-.67,12.53-.67,17.12,0,4.89.22,11.01.67,18.35s1.41,14.72,2.89,22.13c1.48,7.42,3.59,14.27,6.34,20.57,2.74,6.3,6.34,11.01,10.79,14.12l-15.34,11.79c-3.11-1.78-5.78-4.56-8.01-8.34-2.22-3.78-4.04-8.12-5.45-13.01-1.41-4.89-2.52-10.08-3.34-15.57-.82-5.48-1.41-10.86-1.78-16.12-.37-5.26-.59-10.19-.67-14.79-.08-4.59-.11-8.45-.11-11.56v-3.56c-2.22-1.19-5.38-2-9.45-2.45-4.08-.45-7.9-.67-11.45-.67-2.67,0-5.93.22-9.78.67-3.86.44-7.04,1.04-9.56,1.78v38.92l1.33,27.35-17.12,4V25.13c-1.48.3-3.3.44-5.45.44h-7.01c-3.56,0-7.19-.03-10.9-.11-3.71-.07-6.67-.26-8.9-.56-.59.45-1.11.93-1.56,1.45-.44.52-.97,1-1.56,1.45v152.56c-3.26-3.26-6.67-6.38-10.23-9.34-3.56-2.97-7.3-5.59-11.23-7.89-3.93-2.3-8.04-4.11-12.34-5.45-4.3-1.33-8.9-2-13.79-2-7.27,0-13.23,1.97-17.9,5.89-4.67,3.93-7.15,9.08-7.45,15.46-.3,5.04,1.04,9.04,4,12.01,2.96,2.96,6.6,5.04,10.9,6.23,2.22.59,4.74.89,7.56.89,4.3,0,8.75-.82,13.34-2.45,4.59-1.63,8.6-4.15,12.01-7.56l.89.89c-4,4-8.45,6.97-13.34,8.9-4.89,1.92-9.64,2.89-14.23,2.89-6.08,0-11.42-1.63-16.01-4.89-4.6-3.26-7.12-8.16-7.56-14.68-.3-4,.22-7.89,1.56-11.68,1.33-3.78,3.22-7.23,5.67-10.34s5.34-5.82,8.67-8.12c3.34-2.3,6.86-3.96,10.56-5h.22c3.41-2.96,6.78-6.23,10.12-9.79,3.34-3.56,6.3-7.37,8.9-11.45,2.59-4.08,4.71-8.41,6.34-13.01,1.63-4.59,2.45-9.41,2.45-14.46,0-7.71-1.08-14.34-3.22-19.9-2.15-5.56-4.86-10.41-8.12-14.57-3.26-4.15-6.82-7.75-10.67-10.79-3.86-3.04-7.45-5.89-10.79-8.56-3.34-2.67-6.19-5.3-8.56-7.89-2.37-2.59-3.63-5.52-3.78-8.78-.15-2.67.48-5.19,1.89-7.56,1.41-2.37,3.15-4.59,5.23-6.67s4.34-4,6.78-5.78,4.63-3.41,6.56-4.89l1.56,2ZM68.8,87.18c0,5.64-1.04,11.01-3.11,16.12-2.08,5.12-4.78,9.93-8.12,14.46-3.34,4.52-7.15,8.9-11.45,13.12-4.3,4.23-8.67,8.27-13.12,12.12,6.82-.44,13.86.78,21.13,3.67,7.26,2.89,13.64,6.49,19.13,10.79V29.8c-3.56,3.26-7.08,6.53-10.56,9.79-3.49,3.26-6.71,6.23-9.67,8.9,4.3,4.6,8.01,9.97,11.12,16.12,3.11,6.15,4.67,13.68,4.67,22.57ZM151.3,19.35c-3.86,2.08-8.08,4.82-12.68,8.23-4.6,3.41-8.6,6.53-12.01,9.34v54.04c2.52.74,5.74,1.33,9.67,1.78,3.93.44,7.15.67,9.67.67,3.85,0,7.9-.18,12.12-.56,4.23-.37,7.6-1.15,10.12-2.33.89-9.49,2.52-19.01,4.89-28.58,2.37-9.56,5.71-17.53,10.01-23.91-3.11.15-6.15-.33-9.12-1.45-2.97-1.11-5.82-2.59-8.56-4.45-2.75-1.85-5.3-3.89-7.67-6.12-2.37-2.22-4.52-4.45-6.45-6.67ZM166.87,108.08c.15-2.37.3-4.85.44-7.45.15-2.59.37-5.23.67-7.89-2.52.89-5.56,1.59-9.12,2.11-3.56.52-6.89.78-10.01.78-3.41,0-7.23-.18-11.45-.56-4.23-.37-7.82-1-10.79-1.89v14.23c2.96-.89,6.48-1.52,10.56-1.89,4.08-.37,7.75-.56,11.01-.56s6.41.26,9.9.78c3.48.52,6.41,1.3,8.78,2.33Z"/>
  <path d="M219.8,133.21c1.63-.89,3.63-2,6-3.34,2.37-1.33,4.63-2.78,6.78-4.34,2.15-1.56,4-3.26,5.56-5.12,1.56-1.85,2.34-3.67,2.34-5.45,0-2.67-.85-4.71-2.56-6.12-1.71-1.41-3.82-2.56-6.34-3.45-2.52-.89-5.26-1.74-8.23-2.56-2.97-.81-5.78-1.92-8.45-3.34-2.67-1.41-4.93-3.26-6.78-5.56-1.86-2.3-2.86-5.45-3-9.45-.15-3.85.33-7.12,1.45-9.79s2.67-4.89,4.67-6.67c2-1.78,4.3-3.22,6.89-4.34,2.59-1.11,5.23-2.04,7.9-2.78,4.15-1.18,8.45-2.52,12.9-4,4.45-1.48,9.19-3.34,14.23-5.56,6.23,1.19,10.71,4.38,13.45,9.56,2.74,5.19,4.11,10.97,4.11,17.35v60.49c0,3.41.26,6.82.78,10.23.52,3.41,1.45,6.53,2.78,9.34,1.33,2.82,3.34,4.82,6,6-2.67,3.41-4.67,6.23-6,8.45-1.33,2.22-2.82,4.74-4.45,7.56-3.26-3.11-5.82-6.6-7.67-10.45-1.86-3.85-3.15-7.93-3.89-12.23-2.37,2.22-4.82,4.56-7.34,7-2.52,2.45-4.89,4.71-7.12,6.78-2.22,2.08-4.15,3.93-5.78,5.56-1.63,1.63-2.82,2.81-3.56,3.56-3.41-4.3-7.71-7.45-12.9-9.45-5.19-2-10.6-3.22-16.23-3.67l2.45-11.56v-16.23l12.01-6.45ZM256.94,79.61c0-3.41-.63-6.23-1.89-8.45-1.26-2.22-2.86-4-4.78-5.34-1.93-1.33-4.11-2.26-6.56-2.78-2.45-.52-4.86-.78-7.23-.78-3.56,0-6.67.44-9.34,1.33-3.86,1.19-6.75,3.26-8.67,6.23-1.93,2.97-2.52,6.75-1.78,11.34.74,3.86,2.7,6.78,5.89,8.78,3.19,2,6.63,3.78,10.34,5.34,3.7,1.56,7.04,3.26,10.01,5.12,2.96,1.86,4.52,4.56,4.67,8.12.15,3.26-.71,6.26-2.56,9.01-1.86,2.75-4.19,5.23-7,7.45-2.82,2.22-5.75,4.15-8.78,5.78-3.04,1.63-5.67,3.04-7.9,4.23v21.13c1.93.59,3.96,1.37,6.12,2.33,2.15.97,4.23,2,6.23,3.11,2,1.11,3.85,2.22,5.56,3.34,1.7,1.11,3.22,2.04,4.56,2.78,1.63-1.48,3.67-3.41,6.12-5.78,2.45-2.37,4.7-4.45,6.78-6.23.15-4.59.26-10.26.33-17.01.07-6.74.11-13.71.11-20.9s-.04-14.16-.11-20.9c-.08-6.74-.11-12.49-.11-17.23Z"/>
  <path d="M276.51,65.83c2.96-3.11,5.26-6,6.89-8.67,1.63-2.67,3.26-5.19,4.89-7.56,4.74,3.41,7.86,7.82,9.34,13.23,1.48,5.41,2.22,11.6,2.22,18.57v68.05c0,1.48.07,3.15.22,5,.15,1.86.52,3.56,1.11,5.11.59,1.56,1.48,2.86,2.67,3.89,1.18,1.04,2.81,1.56,4.89,1.56,1.78,0,3.89-.56,6.34-1.67,2.45-1.11,4.93-2.45,7.45-4,2.52-1.56,4.89-3.19,7.12-4.89,2.22-1.7,3.93-3.08,5.12-4.11l-.22-58.93c0-2.96-.04-5.82-.11-8.56-.08-2.74-.44-5.23-1.11-7.45-.67-2.22-1.71-4.11-3.11-5.67-1.41-1.56-3.37-2.7-5.89-3.45,2.96-3.26,5.3-6.19,7-8.78,1.7-2.59,3.3-5.15,4.78-7.67,4.89,3.41,8.12,7.82,9.67,13.23,1.56,5.41,2.33,11.6,2.33,18.57v12.9c0,5.19-.04,10.53-.11,16.01-.08,5.49-.11,10.82-.11,16.01v12.9c.15,7.12.96,13.68,2.45,19.68,1.48,6,2.56,11.71,3.22,17.12.67,5.41.37,10.6-.89,15.57-1.26,4.97-4.56,9.97-9.9,15.01-4.15,4-8.86,7.26-14.12,9.78-5.26,2.52-10.34,3.78-15.23,3.78-3.56,0-6.93-.67-10.12-2-3.19-1.33-6.23-3.08-9.12-5.23-2.89-2.15-5.56-4.56-8.01-7.23-2.45-2.67-4.71-5.34-6.78-8.01,2.81-1.19,5.19-2.75,7.12-4.67,1.92-1.93,3.63-4.15,5.11-6.67,1.78,3.41,4.04,6.52,6.78,9.34,2.74,2.81,5.71,5.23,8.9,7.23,3.19,2,6.52,3.59,10.01,4.78,3.48,1.19,6.78,1.78,9.9,1.78,5.19,0,9.19-1.71,12.01-5.12,2.07-2.37,3.11-5.49,3.11-9.34s-.44-8.04-1.33-12.57c-.89-4.52-1.97-9.23-3.22-14.12-1.26-4.89-2.11-9.64-2.56-14.23-2.67,1.78-5.52,3.67-8.56,5.67-3.04,2-6.12,4.11-9.23,6.34s-6.12,4.48-9.01,6.78c-2.89,2.3-5.6,4.48-8.12,6.56-3.11,0-5.6-.82-7.45-2.45-1.86-1.63-3.26-3.71-4.23-6.23-.97-2.52-1.6-5.23-1.89-8.12-.3-2.89-.44-5.59-.44-8.12v-63.6c0-2.96-.04-5.82-.11-8.56-.08-2.74-.41-5.23-1-7.45-.59-2.22-1.56-4.15-2.89-5.78-1.33-1.63-3.26-2.81-5.78-3.56Z"/>
  <path d="M437.74,67.83v63.16c0,6.23.92,11.42,2.78,15.57,1.85,4.15,4.3,7.42,7.34,9.78,3.04,2.37,6.48,3.93,10.34,4.67,3.85.74,7.63.82,11.34.22-1.19.89-2.37,2.11-3.56,3.67-1.19,1.56-2.3,3.26-3.34,5.11-1.04,1.85-1.86,3.7-2.45,5.56-.59,1.85-.89,3.45-.89,4.78-5.34-1.78-10.16-3.93-14.46-6.45-4.3-2.52-7.97-5.45-11.01-8.78-3.04-3.33-5.41-7.19-7.12-11.56-1.71-4.37-2.56-9.38-2.56-15.01v-32.91c0-6.23.03-12.57.11-19.01.07-6.45.11-12.71.11-18.79h-9.34v-2.89h9.34v-26.02c2.81-1.19,5.26-2.74,7.34-4.67,2.07-1.93,4.15-3.93,6.23-6v14.46c0,6.67-.08,14.09-.22,22.24h30.47v2.89h-30.47Z"/>
  <path d="M540.03,138.55c0,2.97.03,5.82.11,8.56.07,2.75.44,5.23,1.11,7.45.67,2.22,1.67,4.15,3,5.78,1.33,1.63,3.26,2.82,5.78,3.56-2.97,3.26-5.26,6.19-6.89,8.78-1.63,2.59-3.26,5.15-4.89,7.67-4.75-3.41-7.89-7.86-9.45-13.34s-2.33-11.71-2.33-18.68c0-12.01.03-23.31.11-33.91.07-10.6.11-21.98.11-34.14,0-1.63-.08-3.34-.22-5.11-.15-1.78-.52-3.45-1.11-5-.59-1.56-1.48-2.85-2.67-3.89-1.19-1.04-2.82-1.56-4.89-1.56-1.78,0-3.93.59-6.45,1.78-2.52,1.19-5.04,2.56-7.56,4.11-2.52,1.56-4.89,3.19-7.12,4.89-2.22,1.71-3.93,3.08-5.11,4.11l-.22,81.17,9.34,6.89-15.57,12.68-14.68-12.01,7.56-6V11.56c2.67-.74,5.08-1.67,7.23-2.78,2.15-1.11,4.26-2.48,6.34-4.11v70.72c2.67-1.78,5.52-3.67,8.56-5.67,3.04-2,6.08-4.11,9.12-6.34,3.04-2.22,6.04-4.48,9.01-6.78,2.96-2.3,5.63-4.48,8.01-6.56,3.11,0,5.59.82,7.45,2.45,1.85,1.63,3.26,3.71,4.23,6.23.96,2.52,1.59,5.23,1.89,8.12.3,2.89.44,5.6.44,8.12v17.46c0,4.97-.04,9.79-.11,14.46-.08,4.67-.11,9.49-.11,14.46v17.24Z"/>
  <path d="M556.71,66.49c4.3-1.92,8.15-4.41,11.56-7.45,3.41-3.04,6.6-6.04,9.56-9.01,2.81,2.82,6.6,5.23,11.34,7.23,4.74,2,9.49,3.6,14.23,4.78l5.56.89-37.14,79.39c1.19,4,2.96,7.34,5.34,10.01,2.37,2.67,5.04,4.75,8.01,6.23,2.96,1.48,6.12,2.41,9.45,2.78,3.34.37,6.56.33,9.67-.11-1.19.89-2.41,2.11-3.67,3.67-1.26,1.56-2.37,3.26-3.34,5.11-.97,1.85-1.75,3.7-2.33,5.56-.59,1.85-.89,3.45-.89,4.78-5.34-1.78-10.27-3.93-14.79-6.45-4.52-2.52-8.45-5.45-11.79-8.78-3.34-3.33-5.97-7.19-7.89-11.56-1.93-4.37-2.89-9.38-2.89-15.01v-72.05ZM570.5,130.99v3.78c0,1.19.15,2.37.44,3.56l25.13-60.93c-3.41-2.37-6.6-4.71-9.56-7.01-2.97-2.3-5.93-4.63-8.9-7l-7.12,5.78c-.3,10.53-.37,20.79-.22,30.8.15,10.01.22,20.35.22,31.02Z"/>
  <path d="M703.93,89.62c-6.67,0-12.27-2.04-16.79-6.12-4.52-4.08-6.93-9.52-7.23-16.34-.44-8.9,1.41-17.09,5.56-24.57,4.15-7.48,9.6-13.9,16.34-19.24,6.75-5.34,14.27-9.38,22.57-12.12,8.3-2.74,16.46-3.74,24.46-3,10.08.89,18.2,4.23,24.35,10.01,6.15,5.78,11.15,13.05,15.01,21.79,3.85,8.75,6.86,18.57,9.01,29.47,2.15,10.9,4.26,21.9,6.34,33.02,1.33,7.56,2.85,14.94,4.56,22.13,1.7,7.19,3.67,13.57,5.89,19.12,2.22,5.56,4.82,10.05,7.78,13.45,2.96,3.41,6.45,5.12,10.45,5.12,1.48,0,2.96-.22,4.45-.67l.89,1.11-7.78,17.35c-6.38-.45-11.79-2.45-16.23-6-4.45-3.56-8.19-8.19-11.23-13.9-3.04-5.71-5.53-12.3-7.45-19.79-1.93-7.48-3.71-15.46-5.34-23.91h-64.05c-1.93,8.01-4.38,15.42-7.34,22.24-2.97,6.82-6.97,12.45-12.01,16.9,4.74.3,9.75.89,15.01,1.78,5.26.89,10.23,2.37,14.9,4.45,4.67,2.08,8.67,4.86,12.01,8.34,3.33,3.48,5.45,7.89,6.34,13.23-1.93,2.37-4.15,4.96-6.67,7.78-2.52,2.81-5.41,5.41-8.67,7.78-3.26,2.37-6.86,4.34-10.79,5.89-3.93,1.56-8.27,2.33-13.01,2.33-6.97,0-13.38-1.26-19.24-3.78-5.86-2.52-11.6-5.64-17.23-9.34l.89-1.33c5.04,3.11,10.23,5.89,15.57,8.34,5.34,2.45,11.04,3.67,17.12,3.67s11.82-1.15,16.79-3.45c4.97-2.3,9.23-5,12.79-8.12-.59-5.78-2.93-10.34-7-13.68-4.08-3.33-8.86-5.78-14.34-7.34-5.49-1.56-11.23-2.52-17.24-2.89-6-.37-11.31-.56-15.9-.56s-9.93.22-15.57.67c.15-.59.41-1.63.78-3.11.37-1.48.78-3,1.22-4.56.44-1.56.96-2.96,1.56-4.23.59-1.26,1.18-1.89,1.78-1.89,1.92-.15,4.23-.15,6.89,0,2.67.15,5.41.19,8.23.11,2.81-.07,5.52-.41,8.12-1,2.59-.59,4.63-1.7,6.12-3.34,2.96-3.11,5.48-7.37,7.56-12.79,2.07-5.41,3.85-11.34,5.34-17.79,1.48-6.45,2.81-13.16,4-20.13,1.18-6.97,2.37-13.57,3.56-19.79,1.04-5.34,2.33-10.75,3.89-16.23,1.56-5.48,3.45-10.79,5.67-15.9,2.22-5.11,4.85-9.82,7.89-14.12,3.04-4.3,6.48-7.86,10.34-10.67-3.41-2.07-7.23-3.59-11.45-4.56-4.22-.96-8.34-1.45-12.34-1.45-7.56,0-14.38,1.56-20.46,4.67-6.08,3.11-11.2,7.08-15.34,11.9-4.15,4.82-7.27,10.12-9.34,15.9-2.08,5.78-2.97,11.34-2.67,16.68.3,7.42,2.63,12.79,7.01,16.12,4.37,3.34,9.97,5,16.79,5v1.33h-3.11ZM787.1,103.41c-.3-1.63-.56-3.19-.78-4.67-.22-1.48-.48-3.04-.78-4.67h-56.26c-.3,1.63-.56,3.19-.78,4.67-.22,1.48-.48,3.04-.78,4.67h59.38ZM785.1,91.85c-1.33-7.86-2.71-15.2-4.11-22.02-1.41-6.82-3.11-13.01-5.11-18.57-2-5.56-4.41-10.45-7.23-14.68-2.82-4.23-6.3-7.75-10.45-10.56-5.19,3.56-9.45,7.89-12.79,13.01-3.34,5.11-6.08,10.6-8.23,16.46-2.15,5.86-3.78,11.9-4.89,18.12-1.11,6.23-2.04,12.31-2.78,18.24h55.6Z"/>
  <path d="M866.05,50.04c6.23,2.08,11.6,3.78,16.12,5.11,4.52,1.33,9.45,2,14.79,2,2.67,0,5.63-.22,8.9-.67-1.19,2.67-2.3,5.49-3.34,8.45-1.04,2.97-1.63,5.93-1.78,8.9-2.97-.89-6.26-1.85-9.9-2.89-3.63-1.04-7.3-2.15-11.01-3.34-3.71-1.18-7.42-2.37-11.12-3.56-3.71-1.18-7.12-2.22-10.23-3.11l-8.9,9.79c1.18,5.04,3.48,9.75,6.89,14.12,3.41,4.38,7.3,8.67,11.68,12.9,4.37,4.23,8.86,8.42,13.45,12.57,4.59,4.15,8.71,8.53,12.34,13.12,3.63,4.6,6.41,9.53,8.34,14.79,1.92,5.26,2.3,11.01,1.11,17.23-2.22,2.22-4.75,4.82-7.56,7.78-2.82,2.97-5.86,5.74-9.12,8.34-3.26,2.59-6.56,4.78-9.9,6.56s-6.71,2.52-10.12,2.22c-3.11-.3-5.86-1.63-8.23-4-2.37-2.37-4.67-5.3-6.89-8.78-2.22-3.48-4.52-7.15-6.89-11.01-2.37-3.85-5.12-7.41-8.23-10.67,5.34-1.63,9.86-5.48,13.57-11.56,3.26,3.71,5.89,7.67,7.89,11.9,2,4.23,3.89,8.08,5.67,11.56,1.78,3.48,3.63,6.38,5.56,8.67,1.93,2.3,4.37,3.45,7.34,3.45,2.81,0,6.3-1.33,10.45-4,4.3-2.81,6.93-5.74,7.89-8.78.96-3.04.74-6.23-.67-9.56-1.41-3.34-3.67-6.82-6.78-10.45-3.11-3.63-6.67-7.37-10.67-11.23-4-3.85-8.12-7.82-12.34-11.9-4.22-4.08-8.16-8.26-11.79-12.56-3.63-4.3-6.67-8.67-9.12-13.12-2.45-4.45-3.82-8.97-4.11-13.57l26.69-24.68Z"/>
  <path d="M976.79,138.55c0,2.97.04,5.82.11,8.56.07,2.75.45,5.23,1.11,7.45.67,2.22,1.67,4.15,3,5.78,1.33,1.63,3.26,2.82,5.78,3.56-2.97,3.26-5.26,6.19-6.89,8.78-1.63,2.59-3.26,5.15-4.89,7.67-4.75-3.41-7.89-7.86-9.45-13.34s-2.33-11.71-2.33-18.68c0-12.01.04-23.31.11-33.91.07-10.6.11-21.98.11-34.14,0-1.63-.08-3.34-.22-5.11-.15-1.78-.52-3.45-1.11-5-.59-1.56-1.48-2.85-2.67-3.89-1.19-1.04-2.82-1.56-4.89-1.56-1.78,0-3.93.59-6.45,1.78-2.52,1.19-5.04,2.56-7.56,4.11-2.52,1.56-4.89,3.19-7.12,4.89-2.22,1.71-3.93,3.08-5.11,4.11l-.22,81.17,9.34,6.89-15.57,12.68-14.68-12.01,7.56-6V11.56c2.67-.74,5.08-1.67,7.23-2.78,2.15-1.11,4.26-2.48,6.34-4.11v70.72c2.67-1.78,5.52-3.67,8.56-5.67,3.04-2,6.08-4.11,9.12-6.34,3.04-2.22,6.04-4.48,9.01-6.78,2.96-2.3,5.63-4.48,8.01-6.56,3.11,0,5.59.82,7.45,2.45,1.85,1.63,3.26,3.71,4.23,6.23.96,2.52,1.59,5.23,1.89,8.12.3,2.89.45,5.6.45,8.12v17.46c0,4.97-.04,9.79-.11,14.46-.08,4.67-.11,9.49-.11,14.46v17.24Z"/>
  <path d="M993.47,66.49c4.3-1.92,8.15-4.41,11.56-7.45,3.41-3.04,6.59-6.04,9.56-9.01,2.81,2.82,6.59,5.23,11.34,7.23,4.74,2,9.49,3.6,14.23,4.78l5.56.89-37.14,79.39c1.19,4,2.96,7.34,5.34,10.01,2.37,2.67,5.04,4.75,8.01,6.23,2.96,1.48,6.12,2.41,9.45,2.78,3.34.37,6.56.33,9.67-.11-1.19.89-2.41,2.11-3.67,3.67-1.26,1.56-2.37,3.26-3.34,5.11-.97,1.85-1.75,3.7-2.33,5.56-.59,1.85-.89,3.45-.89,4.78-5.34-1.78-10.27-3.93-14.79-6.45-4.52-2.52-8.45-5.45-11.79-8.78-3.34-3.33-5.97-7.19-7.89-11.56-1.93-4.37-2.89-9.38-2.89-15.01v-72.05ZM1007.26,130.99v3.78c0,1.19.15,2.37.45,3.56l25.13-60.93c-3.41-2.37-6.6-4.71-9.56-7.01-2.97-2.3-5.93-4.63-8.9-7l-7.12,5.78c-.3,10.53-.37,20.79-.22,30.8.15,10.01.22,20.35.22,31.02Z"/>
  <path d="M1123.34,138.55c0,2.97.07,5.82.22,8.56.15,2.75.56,5.23,1.22,7.45.67,2.22,1.67,4.15,3,5.78,1.33,1.63,3.26,2.82,5.78,3.56-2.97,3.26-5.3,6.19-7,8.78-1.71,2.59-3.3,5.15-4.78,7.67-4.89-3.41-8.12-7.86-9.67-13.34s-2.33-11.71-2.33-18.68c0-12.01.03-23.31.11-33.91.07-10.6.11-21.98.11-34.14,0-5.04-.52-8.82-1.56-11.34-1.04-2.52-3.26-3.93-6.67-4.22-1.93,0-4.15.56-6.67,1.67-2.52,1.11-5.08,2.45-7.67,4-2.6,1.56-5,3.19-7.23,4.89-2.22,1.71-3.93,3.15-5.12,4.34l-.22,81.17,7.78,6.67-13.79,12.9-13.57-12.01,6.23-6.23v-76.5c0-2.67-.08-5.23-.22-7.67-.15-2.45-.56-4.71-1.22-6.78-.67-2.08-1.71-3.93-3.11-5.56-1.41-1.63-3.37-2.96-5.89-4,2.96-1.33,5.63-2.93,8.01-4.78,2.37-1.85,4.3-4.11,5.78-6.78,3.26,1.63,5.78,4.11,7.56,7.45,1.78,3.33,2.67,7.75,2.67,13.23v4.45c2.67-1.78,5.52-3.67,8.56-5.67,3.04-2,6.08-4.11,9.12-6.34,3.04-2.22,6-4.45,8.9-6.67s5.52-4.37,7.89-6.45c3.11,0,5.59.82,7.45,2.45,1.85,1.63,3.26,3.71,4.23,6.23.96,2.52,1.59,5.23,1.89,8.12.3,2.89.45,5.6.45,8.12v17.46c0,4.97-.04,9.79-.11,14.46-.08,4.67-.11,9.49-.11,14.46v17.24Z"/>
  <path d="M47.79,291.17c1.78-1.33,3.93-2.96,6.45-4.89,2.52-1.92,5.04-3.85,7.56-5.78,2.52-1.93,4.89-3.74,7.12-5.45,2.22-1.7,4-3.08,5.34-4.11,1.33-1.19,2.56-2.3,3.67-3.34,1.11-1.04,2.33-2.22,3.67-3.56,3.11.45,5.63,1.56,7.56,3.34,1.92,1.78,3.45,3.93,4.56,6.45,1.11,2.52,1.85,5.38,2.22,8.56.37,3.19.56,6.49.56,9.9v79.39l2.67,8.45c-2.82.15-5.93.59-9.34,1.33-3.41.74-6.75,1.74-10.01,3-3.26,1.26-6.3,2.7-9.12,4.34-2.82,1.63-5.04,3.48-6.67,5.56-4-4.89-8.49-9.97-13.45-15.23-4.97-5.26-10.34-10.34-16.12-15.23v-138.32c5.19-1.48,9.64-3.85,13.34-7.12v72.72ZM76.48,274.04c-2.08,1.04-4.49,2.48-7.23,4.34-2.75,1.86-5.49,3.86-8.23,6-2.75,2.15-5.3,4.34-7.67,6.56-2.37,2.22-4.23,4.15-5.56,5.78v72.28l6.89,11.12c.89-.74,2.45-1.63,4.67-2.67,2.22-1.04,4.67-2.11,7.34-3.22,2.67-1.11,5.45-2.15,8.34-3.11,2.89-.96,5.52-1.67,7.89-2.11v-73.83c0-5.19-.67-9.56-2-13.12-1.33-3.56-2.82-6.23-4.45-8.01Z"/>
  <path d="M127.18,375.01l7.34,6.45-13.79,12.9-12.68-12.01,5.56-6v-150.78c2.67-1.04,5.08-2.11,7.23-3.22,2.15-1.11,4.26-2.56,6.34-4.34v157Z"/>
  <path d="M136.07,280.49c4.3-1.93,8.15-4.41,11.56-7.45,3.41-3.04,6.6-6.04,9.56-9.01,2.81,2.82,6.6,5.23,11.34,7.23,4.74,2,9.49,3.6,14.23,4.78l5.56.89-37.14,79.39c1.19,4,2.96,7.34,5.34,10.01,2.37,2.67,5.04,4.75,8.01,6.23,2.96,1.48,6.12,2.41,9.45,2.78,3.34.37,6.56.33,9.67-.11-1.19.89-2.41,2.11-3.67,3.67-1.26,1.56-2.37,3.26-3.34,5.12-.97,1.85-1.74,3.7-2.33,5.56-.59,1.85-.89,3.45-.89,4.78-5.34-1.78-10.27-3.93-14.79-6.45-4.52-2.52-8.45-5.45-11.79-8.78-3.34-3.34-5.97-7.19-7.89-11.56-1.93-4.37-2.89-9.38-2.89-15.01v-72.05ZM149.86,344.99v3.78c0,1.19.15,2.37.44,3.56l25.13-60.93c-3.41-2.37-6.6-4.71-9.56-7-2.97-2.3-5.93-4.63-8.9-7.01l-7.12,5.78c-.3,10.53-.37,20.79-.22,30.8.15,10.01.22,20.35.22,31.02Z"/>
  <path d="M217.69,264.04c6.23,2.08,11.6,3.78,16.12,5.12,4.52,1.33,9.45,2,14.79,2,2.67,0,5.63-.22,8.9-.67-1.19,2.67-2.3,5.49-3.34,8.45-1.04,2.97-1.63,5.93-1.78,8.89-2.97-.89-6.27-1.85-9.9-2.89-3.63-1.04-7.3-2.15-11.01-3.34-3.71-1.18-7.42-2.37-11.12-3.56-3.71-1.19-7.12-2.22-10.23-3.11l-8.9,9.78c1.19,5.04,3.48,9.75,6.89,14.12,3.41,4.37,7.3,8.67,11.68,12.9,4.37,4.22,8.86,8.42,13.45,12.56,4.59,4.15,8.71,8.53,12.34,13.12,3.63,4.6,6.41,9.53,8.34,14.79,1.92,5.26,2.3,11.01,1.11,17.24-2.22,2.22-4.75,4.82-7.56,7.78-2.82,2.97-5.86,5.74-9.12,8.34-3.26,2.59-6.56,4.78-9.9,6.56-3.34,1.78-6.71,2.52-10.12,2.22-3.11-.3-5.86-1.63-8.23-4-2.37-2.37-4.67-5.3-6.89-8.78-2.22-3.48-4.52-7.15-6.89-11.01-2.37-3.85-5.11-7.41-8.23-10.67,5.34-1.63,9.86-5.48,13.57-11.56,3.26,3.71,5.89,7.67,7.89,11.9s3.89,8.08,5.67,11.56c1.78,3.49,3.63,6.38,5.56,8.67,1.93,2.3,4.37,3.45,7.34,3.45,2.81,0,6.3-1.33,10.45-4,4.3-2.81,6.93-5.74,7.89-8.78.96-3.04.74-6.23-.67-9.56-1.41-3.34-3.67-6.82-6.78-10.45-3.11-3.63-6.67-7.37-10.67-11.23-4-3.85-8.12-7.82-12.34-11.9-4.23-4.08-8.16-8.26-11.79-12.56-3.63-4.3-6.67-8.67-9.12-13.12-2.45-4.45-3.82-8.97-4.11-13.57l26.69-24.68Z"/>
  <path d="M291.3,264.04c6.23,2.08,11.6,3.78,16.12,5.12,4.52,1.33,9.45,2,14.79,2,2.67,0,5.63-.22,8.9-.67-1.19,2.67-2.3,5.49-3.34,8.45-1.04,2.97-1.63,5.93-1.78,8.89-2.97-.89-6.27-1.85-9.9-2.89-3.63-1.04-7.3-2.15-11.01-3.34-3.71-1.18-7.42-2.37-11.12-3.56-3.71-1.19-7.12-2.22-10.23-3.11l-8.9,9.78c1.19,5.04,3.48,9.75,6.89,14.12,3.41,4.37,7.3,8.67,11.68,12.9,4.37,4.22,8.86,8.42,13.45,12.56,4.59,4.15,8.71,8.53,12.34,13.12,3.63,4.6,6.41,9.53,8.34,14.79,1.92,5.26,2.3,11.01,1.11,17.24-2.22,2.22-4.75,4.82-7.56,7.78-2.82,2.97-5.86,5.74-9.12,8.34-3.26,2.59-6.56,4.78-9.9,6.56-3.34,1.78-6.71,2.52-10.12,2.22-3.11-.3-5.86-1.63-8.23-4-2.37-2.37-4.67-5.3-6.89-8.78-2.22-3.48-4.52-7.15-6.89-11.01-2.37-3.85-5.11-7.41-8.23-10.67,5.34-1.63,9.86-5.48,13.57-11.56,3.26,3.71,5.89,7.67,7.89,11.9s3.89,8.08,5.67,11.56c1.78,3.49,3.63,6.38,5.56,8.67,1.93,2.3,4.37,3.45,7.34,3.45,2.81,0,6.3-1.33,10.45-4,4.3-2.81,6.93-5.74,7.89-8.78.96-3.04.74-6.23-.67-9.56-1.41-3.34-3.67-6.82-6.78-10.45-3.11-3.63-6.67-7.37-10.67-11.23-4-3.85-8.12-7.82-12.34-11.9-4.23-4.08-8.16-8.26-11.79-12.56-3.63-4.3-6.67-8.67-9.12-13.12-2.45-4.45-3.82-8.97-4.11-13.57l26.69-24.68Z"/>
  <path d="M395.81,279.83c2.96-3.11,5.26-6,6.89-8.67,1.63-2.67,3.26-5.19,4.89-7.56,4.74,3.41,7.86,7.82,9.34,13.23,1.48,5.41,2.22,11.6,2.22,18.57v68.05c0,1.48.07,3.15.22,5,.15,1.86.52,3.56,1.11,5.12.59,1.56,1.48,2.86,2.67,3.89,1.18,1.04,2.81,1.56,4.89,1.56,1.78,0,3.89-.56,6.34-1.67,2.45-1.11,4.93-2.45,7.45-4,2.52-1.56,4.89-3.19,7.12-4.89,2.22-1.7,3.93-3.08,5.12-4.11l-.22-58.93c0-2.96-.04-5.82-.11-8.56-.08-2.74-.44-5.23-1.11-7.45-.67-2.22-1.71-4.11-3.11-5.67-1.41-1.56-3.37-2.7-5.89-3.45,2.96-3.26,5.3-6.19,7-8.78,1.7-2.59,3.3-5.15,4.78-7.67,4.89,3.41,8.12,7.82,9.67,13.23,1.56,5.41,2.33,11.6,2.33,18.57v12.9c0,5.19-.04,10.53-.11,16.01-.08,5.49-.11,10.82-.11,16.01v12.9c.15,7.12.96,13.68,2.45,19.68,1.48,6,2.56,11.71,3.22,17.12.67,5.41.37,10.6-.89,15.57-1.26,4.97-4.56,9.97-9.9,15.01-4.15,4-8.86,7.26-14.12,9.78-5.26,2.52-10.34,3.78-15.23,3.78-3.56,0-6.93-.67-10.12-2-3.19-1.33-6.23-3.08-9.12-5.23-2.89-2.15-5.56-4.56-8.01-7.23-2.45-2.67-4.71-5.34-6.78-8.01,2.81-1.19,5.19-2.75,7.12-4.67,1.92-1.93,3.63-4.15,5.11-6.67,1.78,3.41,4.04,6.52,6.78,9.34,2.74,2.81,5.71,5.23,8.9,7.23,3.19,2,6.52,3.59,10.01,4.78,3.48,1.19,6.78,1.78,9.9,1.78,5.19,0,9.19-1.71,12.01-5.12,2.07-2.37,3.11-5.49,3.11-9.34s-.44-8.04-1.33-12.56c-.89-4.52-1.97-9.23-3.22-14.12-1.26-4.89-2.11-9.63-2.56-14.23-2.67,1.78-5.52,3.67-8.56,5.67-3.04,2-6.12,4.11-9.23,6.34s-6.12,4.48-9.01,6.78c-2.89,2.3-5.6,4.48-8.12,6.56-3.11,0-5.6-.82-7.45-2.45-1.86-1.63-3.26-3.71-4.23-6.23-.97-2.52-1.6-5.23-1.89-8.12-.3-2.89-.44-5.59-.44-8.12v-63.6c0-2.96-.04-5.82-.11-8.56-.08-2.74-.41-5.23-1-7.45-.59-2.22-1.56-4.15-2.89-5.78-1.33-1.63-3.26-2.81-5.78-3.56Z"/>
  <path d="M478.32,371.67v-78.5c5.78-3.41,11.56-7.34,17.35-11.79,5.78-4.45,11.34-9.71,16.68-15.79,1.93-.59,4.15-.89,6.67-.89,3.41,0,6.45.71,9.12,2.11,2.67,1.41,4.93,3.37,6.78,5.89,1.85,2.52,3.3,5.45,4.34,8.78,1.04,3.34,1.56,6.93,1.56,10.79v17.23c0,6.15-.04,12.34-.11,18.57-.08,6.23-.15,12.42-.22,18.57-.08,6.15-.11,11.9-.11,17.24-13.64,8.3-25.72,18.46-36.25,30.47-2.97-4-7.12-7.23-12.45-9.67-5.34-2.45-10.75-3.96-16.23-4.56l2.89-8.45ZM491.89,369.23c4.15,1.19,8.19,3.04,12.12,5.56,3.93,2.52,7.15,4.67,9.67,6.45,2.37-2.37,4.48-4.52,6.34-6.45,1.85-1.92,4.11-3.78,6.78-5.56,0-4.59.03-10.12.11-16.57.07-6.45.11-13.12.11-20.01v-37.03c0-6.08-1.45-11.08-4.34-15.01-2.89-3.93-6.41-5.89-10.56-5.89-1.93,0-3.63.37-5.11,1.11l-15.12,12.01v81.39Z"/>
  <path d="M603.3,368.78c-5.34,3.41-11.23,7.38-17.68,11.9s-12.05,8.86-16.79,13.01c-3.11,0-5.6-.82-7.45-2.45-1.86-1.63-3.26-3.71-4.23-6.23-.97-2.52-1.6-5.23-1.89-8.12-.3-2.89-.44-5.59-.44-8.12v-63.6c0-2.96-.04-5.82-.11-8.56-.08-2.74-.41-5.23-1-7.45-.59-2.22-1.56-4.15-2.89-5.78-1.33-1.63-3.26-2.81-5.78-3.56,2.96-3.11,5.26-6,6.89-8.67,1.63-2.67,3.26-5.19,4.89-7.56,4.74,3.41,7.86,7.82,9.34,13.23,1.48,5.41,2.22,11.6,2.22,18.57v68.05c0,1.48.07,3.15.22,5,.15,1.86.52,3.56,1.11,5.12.59,1.56,1.48,2.86,2.67,3.89,1.18,1.04,2.81,1.56,4.89,1.56,1.78,0,3.89-.56,6.34-1.67,2.45-1.11,4.89-2.45,7.34-4,2.45-1.56,4.78-3.19,7.01-4.89,2.22-1.7,4-3.08,5.34-4.11l-.22-58.93c0-2.96-.04-5.82-.11-8.56-.08-2.74-.44-5.23-1.11-7.45-.67-2.22-1.71-4.11-3.11-5.67-1.41-1.56-3.37-2.7-5.89-3.45,2.96-3.26,5.3-6.19,7-8.78,1.7-2.59,3.3-5.15,4.78-7.67,4.89,3.41,8.12,7.82,9.67,13.23,1.56,5.41,2.33,11.6,2.33,18.57,0,8.3.04,17.5.11,27.58.07,10.08.11,19.28.11,27.58,0,2.82.04,5.82.11,9.01.07,3.19.41,6.19,1,9.01.59,2.82,1.52,5.3,2.78,7.45,1.26,2.15,3.08,3.6,5.45,4.34-1.04.89-2.26,2-3.67,3.34-1.41,1.33-2.78,2.67-4.11,4s-2.52,2.56-3.56,3.67c-1.04,1.11-1.78,1.96-2.22,2.56-3.41-1.63-5.78-4.45-7.12-8.45-1.33-4-2.08-8.89-2.22-14.68v-2.22Z"/>
  <path d="M624.21,275.6c2.96-1.33,5.63-2.93,8.01-4.78,2.37-1.85,4.3-4.11,5.78-6.78,3.26,1.63,5.78,4.11,7.56,7.45s2.67,7.75,2.67,13.23v12.9l10.9-33.58h2.45c1.48,1.48,3.41,2.89,5.78,4.23,2.37,1.33,4.96,2.52,7.78,3.56,2.81,1.04,5.67,1.97,8.56,2.78,2.89.82,5.59,1.45,8.12,1.89l-8.23,16.9c-5.49-3.71-10.2-7.41-14.12-11.12-3.93-3.7-7.38-7.04-10.34-10.01-1.04,3.26-2.15,6.78-3.34,10.56-1.19,3.78-2.3,7.53-3.34,11.23-1.04,3.71-1.93,7.19-2.67,10.45-.74,3.26-1.26,6-1.56,8.23l-.22,62.05,7.78,6.67-13.79,12.9-13.57-12.01,6.23-6.23v-76.5c0-2.67-.08-5.23-.22-7.67-.15-2.45-.56-4.7-1.22-6.78-.67-2.07-1.71-3.93-3.11-5.56-1.41-1.63-3.37-2.96-5.89-4Z"/>
  <path d="M765.64,264.04c2.37,1.19,4.41,3,6.12,5.45,1.7,2.45,2.93,6.19,3.67,11.23.44,2.67.67,5.12.67,7.34s.07,5.41.22,9.56c2.52-3.56,5.52-6.89,9.01-10.01,3.48-3.11,7.19-6,11.12-8.67,3.93-2.67,7.97-5.23,12.12-7.67,4.15-2.45,8.15-4.78,12.01-7l1.78,1.56c-2.08,1.63-3.22,4.08-3.45,7.34-.22,3.26,0,7.15.67,11.67.67,4.52,1.56,9.64,2.67,15.34,1.11,5.71,1.92,11.86,2.45,18.46.52,6.6.59,13.53.22,20.79-.37,7.27-1.67,14.75-3.89,22.46-5.64,4.75-11.67,9.93-18.12,15.57s-12.12,11.26-17.01,16.9c-3.11-4-7.04-7.27-11.79-9.79-4.75-2.52-9.86-4.08-15.34-4.67l3.78-8.67v-71.61c0-2.67-.08-5.23-.22-7.67-.15-2.45-.56-4.7-1.22-6.78-.67-2.07-1.71-3.93-3.11-5.56-1.41-1.63-3.37-2.96-5.89-4,2.96-1.33,5.63-2.93,8.01-4.78,2.37-1.85,4.23-4.11,5.56-6.78ZM807.22,369.23c3.11-8.45,4.74-17.2,4.89-26.24.15-9.04-.3-17.75-1.33-26.13-1.04-8.37-2.19-16.05-3.45-23.02-1.26-6.97-1.74-12.53-1.45-16.68-2.82,1.48-5.67,3.22-8.56,5.23-2.89,2-5.64,4.08-8.23,6.23-2.6,2.15-5,4.34-7.23,6.56-2.22,2.22-4.08,4.23-5.56,6v68.72c2.96,1.19,5.97,2.89,9.01,5.12,3.04,2.22,6.04,4.6,9.01,7.12l12.9-12.9Z"/>
  <path d="M834.35,280.49c4.3-1.93,8.15-4.41,11.56-7.45,3.41-3.04,6.6-6.04,9.56-9.01,2.82,2.82,6.6,5.23,11.34,7.23,4.74,2,9.49,3.6,14.23,4.78l5.56.89-37.14,79.39c1.18,4,2.96,7.34,5.34,10.01,2.37,2.67,5.04,4.75,8.01,6.23,2.96,1.48,6.12,2.41,9.45,2.78,3.34.37,6.56.33,9.67-.11-1.19.89-2.41,2.11-3.67,3.67-1.26,1.56-2.37,3.26-3.34,5.12-.97,1.85-1.74,3.7-2.33,5.56-.59,1.85-.89,3.45-.89,4.78-5.34-1.78-10.27-3.93-14.79-6.45-4.52-2.52-8.45-5.45-11.79-8.78-3.34-3.34-5.97-7.19-7.89-11.56-1.93-4.37-2.89-9.38-2.89-15.01v-72.05ZM848.14,344.99v3.78c0,1.19.15,2.37.44,3.56l25.13-60.93c-3.41-2.37-6.6-4.71-9.56-7-2.97-2.3-5.93-4.63-8.9-7.01l-7.12,5.78c-.3,10.53-.37,20.79-.22,30.8.15,10.01.22,20.35.22,31.02Z"/>
  <path d="M891.28,275.6c2.96-1.33,5.63-2.93,8.01-4.78,2.37-1.85,4.3-4.11,5.78-6.78,3.26,1.63,5.78,4.11,7.56,7.45,1.78,3.34,2.67,7.75,2.67,13.23l-.22,90.07,7.78,6.67-14.01,12.9-13.34-12.01,6.23-6.23v-76.5c0-2.67-.08-5.23-.22-7.67-.15-2.45-.56-4.7-1.22-6.78-.67-2.07-1.71-3.93-3.11-5.56-1.41-1.63-3.37-2.96-5.89-4ZM891.5,239.13l13.79-13.57,13.57,13.57-13.57,13.79-13.79-13.79Z"/>
  <path d="M1000.69,352.55c0,2.97.07,5.82.22,8.56.15,2.75.56,5.23,1.22,7.45s1.67,4.15,3,5.78c1.33,1.63,3.26,2.82,5.78,3.56-2.97,3.26-5.3,6.19-7,8.78-1.71,2.59-3.3,5.15-4.78,7.67-4.89-3.41-8.12-7.86-9.67-13.34s-2.33-11.71-2.33-18.68c0-12.01.03-23.31.11-33.91.07-10.6.11-21.98.11-34.14,0-5.04-.52-8.82-1.56-11.34-1.04-2.52-3.26-3.93-6.67-4.23-1.93,0-4.15.56-6.67,1.67-2.52,1.11-5.08,2.45-7.67,4-2.6,1.56-5,3.19-7.23,4.89-2.22,1.71-3.93,3.15-5.12,4.34l-.22,81.17,7.78,6.67-13.79,12.9-13.57-12.01,6.23-6.23v-76.5c0-2.67-.08-5.23-.22-7.67-.15-2.45-.56-4.7-1.22-6.78-.67-2.07-1.71-3.93-3.11-5.56-1.41-1.63-3.37-2.96-5.89-4,2.96-1.33,5.63-2.93,8.01-4.78,2.37-1.85,4.3-4.11,5.78-6.78,3.26,1.63,5.78,4.11,7.56,7.45,1.78,3.34,2.67,7.75,2.67,13.23v4.45c2.67-1.78,5.52-3.67,8.56-5.67,3.04-2,6.08-4.11,9.12-6.34,3.04-2.22,6-4.45,8.9-6.67s5.52-4.37,7.89-6.45c3.11,0,5.59.82,7.45,2.45,1.85,1.63,3.26,3.71,4.23,6.23.96,2.52,1.59,5.23,1.89,8.12.3,2.89.45,5.6.45,8.12v17.46c0,4.97-.04,9.79-.11,14.46-.08,4.67-.11,9.49-.11,14.46v17.24Z"/>
  <path d="M1046.95,264.04c6.23,2.08,11.6,3.78,16.12,5.12,4.52,1.33,9.45,2,14.79,2,2.67,0,5.63-.22,8.9-.67-1.19,2.67-2.3,5.49-3.34,8.45-1.04,2.97-1.63,5.93-1.78,8.89-2.97-.89-6.26-1.85-9.9-2.89-3.63-1.04-7.3-2.15-11.01-3.34-3.71-1.18-7.42-2.37-11.12-3.56-3.71-1.19-7.12-2.22-10.23-3.11l-8.9,9.78c1.18,5.04,3.48,9.75,6.89,14.12,3.41,4.37,7.3,8.67,11.68,12.9,4.37,4.22,8.86,8.42,13.45,12.56,4.59,4.15,8.71,8.53,12.34,13.12,3.63,4.6,6.41,9.53,8.34,14.79,1.92,5.26,2.3,11.01,1.11,17.24-2.22,2.22-4.75,4.82-7.56,7.78-2.82,2.97-5.86,5.74-9.12,8.34-3.26,2.59-6.56,4.78-9.9,6.56-3.34,1.78-6.71,2.52-10.12,2.22-3.11-.3-5.86-1.63-8.23-4-2.37-2.37-4.67-5.3-6.89-8.78-2.22-3.48-4.52-7.15-6.89-11.01-2.37-3.85-5.12-7.41-8.23-10.67,5.34-1.63,9.86-5.48,13.57-11.56,3.26,3.71,5.89,7.67,7.89,11.9,2,4.23,3.89,8.08,5.67,11.56,1.78,3.49,3.63,6.38,5.56,8.67,1.93,2.3,4.37,3.45,7.34,3.45,2.81,0,6.3-1.33,10.45-4,4.3-2.81,6.93-5.74,7.89-8.78.96-3.04.74-6.23-.67-9.56-1.41-3.34-3.67-6.82-6.78-10.45-3.11-3.63-6.67-7.37-10.67-11.23-4-3.85-8.12-7.82-12.34-11.9-4.22-4.08-8.16-8.26-11.79-12.56-3.63-4.3-6.67-8.67-9.12-13.12-2.45-4.45-3.82-8.97-4.11-13.57l26.69-24.68Z"/>
</svg>