<?xml version="1.0" encoding="UTF-8"?>
<svg id="Lager_1" xmlns="http://www.w3.org/2000/svg" version="1.1" viewBox="0 0 582.21 333.59">
  <!-- Generator: Adobe Illustrator 30.3.0, SVG Export Plug-In . SVG Version: 2.1.3 Build 182)  -->
  <path d="M87.96,25.37c-2.35,2.1-4.11,4.88-5.28,8.33-1.17,3.46-1.94,7.16-2.31,11.11-.37,3.95-.5,7.9-.37,11.85.12,3.95.25,7.47.37,10.56.25,7.04.65,14.2,1.2,21.48.56,7.29.43,14.26-.37,20.93-.8,6.67-2.78,12.81-5.93,18.43-3.15,5.62-8.37,10.28-15.65,13.98,4.19,1.23,8.21,2.75,12.04,4.54,3.82,1.79,8.02,3.24,12.59,4.35,1.73-1.24,2.93-3.89,3.61-7.96.68-4.07,1.05-8.86,1.11-14.35.06-5.49-.13-11.39-.56-17.68-.43-6.3-.93-12.34-1.48-18.15-.56-5.8-1.11-10.99-1.67-15.56-.56-4.57-.9-7.9-1.02-10-.49-6.79-.71-12.59-.65-17.41.06-4.82.86-9.35,2.41-13.61,1.54-4.26,4.04-8.49,7.5-12.69,3.45-4.2,8.33-9.01,14.63-14.44l1.48,2.41c-2.84,2.47-4.88,6.05-6.11,10.74-1.24,4.69-2.01,9.75-2.31,15.19-.31,5.43-.28,10.83.09,16.2s.74,10.03,1.11,13.98c.74,6.42,1.33,13.27,1.76,20.56.43,7.29.4,14.44-.09,21.48-.49,7.04-1.67,13.67-3.52,19.91-1.85,6.23-4.69,11.63-8.52,16.2-1.48,1.73-3.27,3.64-5.37,5.74-2.1,2.1-4.32,4.04-6.67,5.83-2.35,1.79-4.82,3.3-7.41,4.54-2.59,1.23-5.12,1.85-7.59,1.85-1.98,0-3.92-.31-5.83-.93-1.92-.62-3.8-1.33-5.65-2.13-1.85-.8-3.67-1.64-5.46-2.5-1.79-.87-3.61-1.55-5.46-2.04-1.48-.37-2.9-.68-4.26-.93-1.36-.25-2.66-.37-3.89-.37-3.95,0-7.16,1.17-9.63,3.52-2.47,2.34-3.7,6.3-3.7,11.85,0,2.71.53,5.06,1.57,7.04,1.05,1.97,2.44,3.61,4.17,4.91,1.73,1.3,3.73,2.28,6.02,2.96,2.28.68,4.6,1.02,6.94,1.02,3.58,0,7.28-.68,11.11-2.04,3.83-1.36,7.16-3.46,10-6.3l.74.74c-3.33,3.33-7.04,5.8-11.11,7.41-4.07,1.6-8.03,2.41-11.85,2.41-5.19,0-9.63-1.36-13.33-4.07-3.7-2.72-5.8-6.79-6.3-12.22-.37-4.2.31-8.21,2.04-12.04,1.73-3.83,4.04-7.19,6.94-10.09,2.9-2.9,6.23-5.22,10-6.94,3.76-1.73,7.56-2.59,11.39-2.59,1.36,0,2.75.12,4.17.37,1.42.25,2.81.49,4.17.74,2.22-1.48,3.82-4.04,4.81-7.69.99-3.64,1.64-7.81,1.95-12.5.31-4.69.34-9.72.09-15.09-.25-5.37-.59-10.56-1.02-15.56-.43-5-.87-9.57-1.3-13.7-.43-4.14-.65-7.38-.65-9.72,0-6.54.49-11.82,1.48-15.83.99-4.01,2.47-7.47,4.45-10.37,1.97-2.9,4.47-5.56,7.5-7.96,3.02-2.41,6.51-5.34,10.46-8.8l2.41,1.11ZM95,7.04c0,1.98-.31,4.01-.93,6.11-.62,2.1-2.16,3.15-4.63,3.15-1.98,0-4.35-.71-7.13-2.13-2.78-1.42-5.68-2.96-8.7-4.63-3.03-1.67-6.05-3.18-9.07-4.54-3.03-1.36-5.83-2.04-8.43-2.04h-.74c-3.95.25-7.38,1.48-10.28,3.7-2.9,2.22-5.06,4.94-6.48,8.15-1.42,3.21-2.1,6.64-2.04,10.28.06,3.64,1.08,6.94,3.06,9.91,3.45,5.06,9.57,7.59,18.33,7.59v-1.85c-5.19-.12-9.07-.86-11.67-2.22-2.59-1.36-4.2-2.96-4.81-4.82-.62-2.47.21-4.81,2.5-7.04,2.28-2.22,5.58-3.95,9.91-5.19,1.11-.37,2.34-.62,3.7-.74,1.36-.12,2.78-.19,4.26-.19,2.22,0,4.5.09,6.85.28,2.34.19,4.75.28,7.22.28,2.22,0,4.63-.15,7.22-.46,2.59-.31,5.06-.95,7.41-1.94,2.34-.99,4.32-2.34,5.93-4.07,1.6-1.73,2.53-3.95,2.78-6.67.12-.99-.09-1.7-.65-2.13-.56-.43-1.14-.65-1.76-.65-1.24,0-1.85.62-1.85,1.85Z"/>
  <path d="M171.66,106.11c0,2.47.03,5.03.09,7.69.06,2.66.46,5.19,1.2,7.59.74,2.41,1.91,4.54,3.52,6.39,1.6,1.85,3.95,3.15,7.04,3.89-3.33,3.7-6.02,7.13-8.06,10.28-2.04,3.15-3.98,6.14-5.83,8.98-3.09-1.98-5.62-4.17-7.59-6.57-1.98-2.41-3.52-4.97-4.63-7.68s-1.85-5.49-2.22-8.33c-.37-2.84-.56-5.68-.56-8.52,0-5.43.03-10,.09-13.7.06-3.7.09-7.28.09-10.74s.03-7.04.09-10.74c.06-3.7.09-8.27.09-13.7,0-2.59-.19-4.69-.56-6.3-.37-1.6-.87-2.87-1.48-3.8-.62-.93-1.36-1.54-2.22-1.85-.87-.31-1.79-.46-2.78-.46-2.59,0-5.06.83-7.41,2.5-2.35,1.67-4.01,3.36-5,5.09v65l8.15,6.48-16.11,13.33-15.19-12.04,6.11-5.74.18-54.63c0-2.22-.03-4.54-.09-6.94-.06-2.41-.4-4.63-1.02-6.67-.62-2.04-1.64-3.89-3.06-5.56-1.42-1.67-3.49-2.87-6.2-3.61,3.58-1.73,6.82-3.76,9.72-6.11,2.9-2.34,5.21-5.12,6.94-8.33,3.82,1.11,6.54,3.18,8.15,6.2,1.6,3.03,2.41,6.45,2.41,10.28v3.33c2.34-1.48,4.54-2.93,6.57-4.35,2.04-1.42,3.98-2.9,5.83-4.44,1.85-1.54,3.7-3.21,5.56-5,1.85-1.79,3.82-3.8,5.93-6.02,2.72,0,4.91.68,6.57,2.04,1.67,1.36,2.93,3.18,3.8,5.46.86,2.29,1.45,4.82,1.76,7.59.31,2.78.46,5.59.46,8.43v9.26c0,2.47-.03,4.63-.09,6.48-.06,1.85-.09,3.55-.09,5.09s-.03,3.21-.09,5c-.06,1.79-.09,3.92-.09,6.39v9.07Z"/>
  <path d="M248.88,60.19c4.32-2.84,8.52-5.77,12.59-8.8,4.07-3.02,7.9-6.39,11.48-10.09,2.72,0,4.91.68,6.57,2.04,1.67,1.36,2.93,3.18,3.8,5.46.86,2.29,1.45,4.82,1.76,7.59.31,2.78.46,5.59.46,8.43v64.63l3.52,9.63c-2.35.25-4.75.65-7.22,1.2-2.47.56-4.85,1.36-7.13,2.41-2.29,1.05-4.42,2.25-6.39,3.61-1.98,1.36-3.64,2.9-5,4.63-4.57-4.94-9.54-9.51-14.91-13.7-5.37-4.2-10.83-8.02-16.39-11.48V9.26c6.3-1.85,11.91-4.94,16.85-9.26v60.19ZM264.81,53.15c-3.09,1.36-6.02,3.03-8.8,5-2.78,1.98-5.16,4.2-7.13,6.67v69.07c.86-.62,2.04-1.36,3.52-2.22,1.48-.86,3.12-1.73,4.91-2.59,1.79-.86,3.67-1.67,5.65-2.41,1.97-.74,3.82-1.3,5.56-1.67v-54.07c0-3.45-.34-6.85-1.02-10.19-.68-3.33-1.57-5.86-2.69-7.59Z"/>
  <path d="M317.4,131.11l8.15,6.48-16.11,13.33-15.19-12.04,6.11-5.74V9.26c6.42-1.85,12.1-4.94,17.04-9.26v131.11Z"/>
  <path d="M334.07,129.44v-63.89c4.69-2.84,9.2-6.08,13.52-9.72,4.32-3.64,8.08-7.68,11.3-12.13,3.21-1.6,6.42-2.41,9.63-2.41,2.84,0,5.43.59,7.78,1.76,2.34,1.17,4.35,2.81,6.02,4.91,1.67,2.1,2.99,4.6,3.98,7.5.99,2.9,1.48,6.02,1.48,9.35v14.54c0,5.25-.03,10.56-.09,15.93-.06,5.37-.16,10.68-.28,15.93-.12,5.25-.25,10.09-.37,14.54-5.56,3.46-10.93,7.29-16.11,11.48-5.19,4.19-10.06,8.76-14.63,13.7-1.36-1.73-3.03-3.27-5-4.63-1.98-1.36-4.11-2.56-6.39-3.61-2.29-1.05-4.66-1.85-7.13-2.41-2.47-.56-4.88-.96-7.22-1.2l3.52-9.63ZM350.92,125.19c1.85.37,3.7.96,5.56,1.76,1.85.8,3.61,1.67,5.28,2.59,1.67.93,3.24,1.82,4.72,2.68,1.48.87,2.71,1.61,3.7,2.22.12-3.95.21-8.77.28-14.45.06-5.68.12-11.51.18-17.5.06-5.99.09-11.79.09-17.41v-14.17c0-2.22-.22-4.41-.65-6.57-.43-2.16-1.11-4.07-2.04-5.74-.93-1.67-2.1-2.99-3.52-3.98-1.42-.99-3.06-1.48-4.91-1.48-2.72,0-5.56,1.05-8.52,3.15l-.18,68.89Z"/>
  <path d="M395.92,129.44v-63.89c4.69-2.84,9.2-6.08,13.52-9.72,4.32-3.64,8.08-7.68,11.3-12.13,3.21-1.6,6.42-2.41,9.63-2.41,2.84,0,5.43.59,7.78,1.76,2.34,1.17,4.35,2.81,6.02,4.91,1.67,2.1,2.99,4.6,3.98,7.5.99,2.9,1.48,6.02,1.48,9.35v14.54c0,5.25-.03,10.56-.09,15.93-.06,5.37-.16,10.68-.28,15.93-.12,5.25-.25,10.09-.37,14.54-5.56,3.46-10.93,7.29-16.11,11.48-5.19,4.19-10.06,8.76-14.63,13.7-1.36-1.73-3.03-3.27-5-4.63-1.98-1.36-4.11-2.56-6.39-3.61-2.29-1.05-4.66-1.85-7.13-2.41-2.47-.56-4.88-.96-7.22-1.2l3.52-9.63ZM412.77,125.19c1.85.37,3.7.96,5.56,1.76,1.85.8,3.61,1.67,5.28,2.59,1.67.93,3.24,1.82,4.72,2.68,1.48.87,2.71,1.61,3.7,2.22.12-3.95.21-8.77.28-14.45.06-5.68.12-11.51.18-17.5.06-5.99.09-11.79.09-17.41v-14.17c0-2.22-.22-4.41-.65-6.57-.43-2.16-1.11-4.07-2.04-5.74-.93-1.67-2.1-2.99-3.52-3.98-1.42-.99-3.06-1.48-4.91-1.48-2.72,0-5.56,1.05-8.52,3.15l-.18,68.89Z"/>
  <path d="M462.21,54.81c3.7-2.22,7.25-4.6,10.65-7.13,3.39-2.53,6.51-5.4,9.35-8.61-3.7-4.19-7.84-8.3-12.41-12.31-4.57-4.01-9.44-8.61-14.63-13.8,3.58-1.85,6.63-3.73,9.17-5.65,2.53-1.91,4.78-4.35,6.76-7.31,5.68,5.68,11.2,10.96,16.57,15.83,5.37,4.88,10.15,10.09,14.35,15.65,4.2,5.56,7.56,11.82,10.09,18.8,2.53,6.98,3.8,15.46,3.8,25.46v12.87c0,4.14-.03,8.18-.09,12.13-.06,3.95-.16,8-.28,12.13-.12,4.14-.25,8.43-.37,12.87-5.56,3.46-10.93,7.29-16.11,11.48-5.19,4.19-10.06,8.76-14.63,13.7-1.36-1.73-3.03-3.27-5-4.63-1.98-1.36-4.11-2.56-6.39-3.61-2.29-1.05-4.66-1.85-7.13-2.41-2.47-.56-4.88-.96-7.22-1.2l3.52-9.63V54.81ZM498.88,89.44c.12-5.93-.16-11.26-.83-16.02-.68-4.75-1.67-9.07-2.96-12.96-1.3-3.89-2.9-7.41-4.82-10.56-1.92-3.15-4.05-6.14-6.39-8.98-.99,1.61-1.92,3.12-2.78,4.54-.87,1.42-1.48,2.44-1.85,3.06l-.18,76.67c3.58.74,7.04,2.01,10.37,3.8,3.33,1.79,6.23,3.61,8.7,5.46l.74-45Z"/>
  <path d="M533.32,149.44l-10.74-10.74,12.59-12.59,12.59,12.41h.19v.18l-12.59,21.3h-8.33l6.3-10.56Z"/>
  <path d="M11.3,267.99v-7.68c0-2.65-.34-5.19-1.02-7.59-.68-2.41-1.79-4.54-3.33-6.39-1.54-1.85-3.86-3.15-6.94-3.89,3.33-3.7,5.99-7.13,7.96-10.28,1.97-3.15,3.89-6.14,5.74-8.98,3.08,1.98,5.58,4.17,7.5,6.57,1.91,2.41,3.39,4.97,4.44,7.68,1.05,2.72,1.76,5.49,2.13,8.33.37,2.84.56,5.68.56,8.52v48.89c0,2.59.19,4.69.56,6.3.37,1.61.86,2.87,1.48,3.8.62.93,1.36,1.54,2.22,1.85.86.31,1.79.46,2.78.46,2.59,0,5.06-.83,7.41-2.5,2.34-1.67,4.01-3.36,5-5.09v-46.85c0-2.22-.03-4.54-.09-6.94-.06-2.41-.37-4.63-.93-6.67-.56-2.04-1.51-3.89-2.87-5.56-1.36-1.67-3.4-2.87-6.11-3.61,3.58-1.73,6.79-3.76,9.63-6.11,2.84-2.34,5.12-5.12,6.85-8.33,5.31,1.61,8.58,6.55,9.82,14.82.25,1.11.4,2.13.46,3.06.06.93.09,1.88.09,2.87s.03,2.04.09,3.15c.06,1.11.09,2.47.09,4.07,4.32-6.05,9.66-11.23,16.02-15.56,6.36-4.32,12.75-8.39,19.17-12.22l1.48,1.3c-1.73,1.36-2.66,3.36-2.78,6.02-.12,2.66.09,5.87.65,9.63.56,3.77,1.3,8.03,2.22,12.78.93,4.75,1.67,9.85,2.22,15.28.56,5.43.68,11.14.37,17.13-.31,5.99-1.39,12.19-3.24,18.61-2.72,1.73-5.71,3.73-8.98,6.02-3.27,2.29-6.51,4.69-9.72,7.22-3.21,2.53-6.33,5.12-9.35,7.78-3.03,2.65-5.65,5.21-7.87,7.68-2.72-3.46-5.68-6.2-8.89-8.24-3.21-2.04-7.16-3.24-11.85-3.61l3.15-8.52c-2.35,1.48-4.48,2.93-6.39,4.35-1.92,1.42-3.8,2.87-5.65,4.35-1.85,1.48-3.7,3.12-5.56,4.91-1.85,1.79-3.83,3.8-5.93,6.02-2.72,0-4.91-.68-6.57-2.04-1.67-1.36-2.93-3.18-3.8-5.46-.87-2.29-1.45-4.84-1.76-7.68-.31-2.84-.46-5.62-.46-8.33v-41.3ZM83.89,313.91c2.59-7.04,3.95-14.26,4.07-21.67.12-7.41-.28-14.47-1.2-21.2-.93-6.73-1.92-12.93-2.96-18.61-1.05-5.68-1.39-10.31-1.02-13.89-2.59,2.22-5.59,4.72-8.98,7.5-3.4,2.78-6.39,5.77-8.98,8.98v53.52c1.97.99,3.92,2.32,5.83,3.98,1.91,1.67,4.1,3.67,6.57,6.02l6.67-4.63Z"/>
  <path d="M112.96,237.62c3.58-1.6,6.79-3.67,9.63-6.2,2.84-2.53,5.49-5.03,7.96-7.5,2.34,2.35,5.74,4.35,10.19,6.02,4.44,1.67,8.76,2.99,12.96,3.98l4.63.74-27.96,59.63c.99,6.17,3.61,10.53,7.87,13.06,4.26,2.53,9.72,3.43,16.39,2.69-1.48.62-3.09,1.88-4.82,3.8-1.73,1.92-3.33,4.04-4.82,6.39-1.48,2.34-2.69,4.72-3.61,7.13-.93,2.41-1.39,4.47-1.39,6.2-4.07-2.47-7.78-4.85-11.11-7.13-3.33-2.29-6.18-4.63-8.52-7.04-2.35-2.41-4.17-4.97-5.46-7.68-1.3-2.71-1.94-5.8-1.94-9.26v-64.81ZM130,289.47v.56l14.44-35.37c-2.84-2.84-5.43-5.56-7.78-8.15-2.35-2.59-4.57-5.12-6.67-7.59-.25,8.77-.31,17.04-.19,24.81.12,7.78.19,16.11.19,25v.74Z"/>
  <path d="M231.11,290.39c.99-.62,2.19-1.3,3.61-2.04,1.42-.74,2.75-1.63,3.98-2.69,1.23-1.05,2.28-2.19,3.15-3.43.86-1.23,1.3-2.65,1.3-4.26,0-2.22-.71-3.92-2.13-5.09-1.42-1.17-3.18-2.13-5.28-2.87-2.1-.74-4.38-1.45-6.85-2.13-2.47-.68-4.81-1.6-7.04-2.78-2.22-1.17-4.11-2.71-5.65-4.63-1.55-1.91-2.38-4.54-2.5-7.87-.12-3.21.28-5.93,1.2-8.15.93-2.22,2.22-4.07,3.89-5.56,1.67-1.48,3.58-2.69,5.74-3.61,2.16-.93,4.35-1.7,6.57-2.31,3.45-.99,6.88-2.16,10.28-3.52,3.39-1.36,6.33-3.21,8.8-5.56,3.33,0,6.23.65,8.7,1.95,2.47,1.3,4.51,3.03,6.11,5.19,1.6,2.16,2.78,4.66,3.52,7.5.74,2.84,1.11,5.81,1.11,8.89v40.56c.12,2.22.15,4.72.09,7.5-.06,2.78.15,5.49.65,8.15.49,2.66,1.42,5.03,2.78,7.13,1.36,2.1,3.52,3.58,6.48,4.45-3.33,3.7-5.74,6.97-7.22,9.81-1.48,2.84-3.15,5.68-5,8.52-3.46-2.1-6.17-4.51-8.15-7.22-1.98-2.72-3.52-5.56-4.63-8.52-1.85,1.73-3.64,3.43-5.37,5.09-1.73,1.67-3.33,3.21-4.81,4.63-1.48,1.42-2.78,2.65-3.89,3.7-1.11,1.05-1.92,1.82-2.41,2.31-1.36-1.73-3.03-3.27-5-4.63-1.98-1.36-4.11-2.56-6.39-3.61-2.29-1.05-4.66-1.85-7.13-2.41-2.47-.56-4.88-.96-7.22-1.2l3.52-9.63v-13.52l15.19-8.15ZM252.59,253.54c-.13-3.08-.71-5.83-1.76-8.24-1.05-2.41-2.41-4.41-4.07-6.02-1.67-1.6-3.52-2.84-5.56-3.7-2.04-.86-4.05-1.3-6.02-1.3-1.11,0-2.22.18-3.33.56-3.21.99-5,2.72-5.37,5.19-.37,2.47-.25,4.82.37,7.04.74,2.59,2.41,4.72,5,6.39,2.59,1.67,5.34,3.27,8.24,4.82,2.9,1.55,5.46,3.3,7.68,5.28,2.22,1.98,3.33,4.63,3.33,7.96,0,2.72-.68,5.12-2.04,7.22-1.36,2.1-2.96,3.95-4.82,5.56-1.85,1.61-3.83,2.99-5.93,4.17-2.1,1.17-3.89,2.19-5.37,3.06l-.18,16.48c3.58.99,7.16,2.53,10.74,4.63,3.58,2.1,6.42,3.77,8.52,5,.12-3.7.21-8.39.28-14.07.06-5.68.12-11.54.18-17.59.06-6.05.09-11.94.09-17.68v-14.72Z"/>
  <path d="M304.07,223.91c5.06,1.24,9.47,2.25,13.24,3.06,3.76.8,7.68,1.2,11.76,1.2,1.48,0,3.06-.06,4.72-.19,1.67-.12,3.36-.31,5.09-.56-1.61,3.58-2.99,7.16-4.17,10.74-1.17,3.58-1.7,7.29-1.57,11.11-2.84-.74-5.96-1.67-9.35-2.78-3.4-1.11-6.88-2.22-10.46-3.33-3.58-1.11-7.1-2.13-10.56-3.06-3.46-.93-6.67-1.63-9.63-2.13.86,4.45,2.75,8.43,5.65,11.94,2.9,3.52,6.2,6.94,9.91,10.28s7.53,6.67,11.48,10c3.95,3.33,7.44,7.01,10.46,11.02,3.02,4.01,5.28,8.49,6.76,13.43,1.48,4.94,1.6,10.62.37,17.04-2.22,1.73-4.66,3.86-7.31,6.39-2.66,2.53-5.4,4.97-8.24,7.31-2.84,2.34-5.77,4.35-8.8,6.02-3.03,1.67-6.02,2.37-8.98,2.13-2.84-.12-5.28-1.3-7.31-3.52-2.04-2.22-3.98-4.88-5.83-7.96-1.85-3.08-3.77-6.3-5.74-9.63-1.98-3.33-4.32-6.23-7.04-8.7,3.7-.99,6.94-2.75,9.72-5.28,2.78-2.53,5.21-5.58,7.31-9.17,2.47,2.22,4.47,5.16,6.02,8.8,1.54,3.64,2.96,7.16,4.26,10.56,1.3,3.4,2.75,6.33,4.35,8.8,1.6,2.47,3.76,3.7,6.48,3.7,2.22,0,4.63-.86,7.22-2.59,3.95-2.47,5.58-5.31,4.91-8.52-.68-3.21-2.62-6.73-5.83-10.56-3.21-3.82-7.22-7.9-12.04-12.22-4.82-4.32-9.48-8.83-13.98-13.52-4.51-4.69-8.33-9.51-11.48-14.44-3.15-4.94-4.66-9.88-4.54-14.82l23.15-20.56Z"/>
  <path d="M346.85,237.62c3.58-1.6,6.79-3.67,9.63-6.2,2.84-2.53,5.49-5.03,7.96-7.5,1.23,1.24,2.84,2.41,4.82,3.52,1.97,1.11,4.13,2.1,6.48,2.96,2.34.87,4.72,1.64,7.13,2.32,2.41.68,4.66,1.2,6.76,1.57l-10.37,21.3c-3.09-3.08-5.87-5.99-8.33-8.7-2.47-2.71-4.82-5.37-7.04-7.96-.25,8.77-.31,17.04-.19,24.81.12,7.78.19,16.11.19,25,0,8.15,2.19,13.95,6.57,17.41,4.38,3.46,10.4,4.75,18.06,3.89-1.48.62-3.09,1.88-4.82,3.8-1.73,1.92-3.33,4.04-4.82,6.39-1.48,2.34-2.69,4.72-3.61,7.13-.93,2.41-1.39,4.47-1.39,6.2-4.07-2.47-7.78-4.85-11.11-7.13-3.33-2.29-6.18-4.63-8.52-7.04-2.35-2.41-4.17-4.97-5.46-7.68-1.3-2.71-1.94-5.8-1.94-9.26v-64.81Z"/>
  <path d="M395.73,237.62c3.58-1.6,6.79-3.67,9.63-6.2,2.84-2.53,5.49-5.03,7.96-7.5,2.34,2.35,5.74,4.35,10.19,6.02,4.44,1.67,8.76,2.99,12.96,3.98l4.63.74-27.96,59.63c.99,6.17,3.61,10.53,7.87,13.06,4.26,2.53,9.72,3.43,16.39,2.69-1.48.62-3.09,1.88-4.82,3.8-1.73,1.92-3.33,4.04-4.82,6.39-1.48,2.34-2.69,4.72-3.61,7.13-.93,2.41-1.39,4.47-1.39,6.2-4.07-2.47-7.78-4.85-11.11-7.13-3.33-2.29-6.18-4.63-8.52-7.04-2.35-2.41-4.17-4.97-5.46-7.68-1.3-2.71-1.94-5.8-1.94-9.26v-64.81ZM412.77,289.47v.56l14.44-35.37c-2.84-2.84-5.43-5.56-7.78-8.15-2.35-2.59-4.57-5.12-6.67-7.59-.25,8.77-.31,17.04-.19,24.81.12,7.78.19,16.11.19,25v.74Z"/>
  <path d="M509.43,288.73c0,2.47.03,5.03.09,7.69.06,2.66.46,5.19,1.2,7.59.74,2.41,1.91,4.54,3.52,6.39,1.6,1.85,3.95,3.15,7.04,3.89-3.33,3.7-6.02,7.13-8.06,10.28-2.04,3.15-3.98,6.14-5.83,8.98-3.09-1.98-5.62-4.17-7.59-6.57-1.98-2.41-3.52-4.97-4.63-7.68s-1.85-5.49-2.22-8.33c-.37-2.84-.56-5.68-.56-8.52,0-5.43.03-10,.09-13.7.06-3.7.09-7.28.09-10.74s.03-7.04.09-10.74c.06-3.7.09-8.27.09-13.7,0-2.59-.19-4.69-.56-6.3-.37-1.6-.87-2.87-1.48-3.8-.62-.93-1.36-1.54-2.22-1.85-.87-.31-1.79-.46-2.78-.46-2.59,0-5.06.83-7.41,2.5-2.35,1.67-4.01,3.36-5,5.09v65l8.15,6.48-16.11,13.33-15.19-12.04,6.11-5.74.18-54.63c0-2.22-.03-4.54-.09-6.94-.06-2.41-.4-4.63-1.02-6.67-.62-2.04-1.64-3.89-3.06-5.56-1.42-1.67-3.49-2.87-6.2-3.61,3.58-1.73,6.82-3.76,9.72-6.11,2.9-2.34,5.21-5.12,6.94-8.33,3.82,1.11,6.54,3.18,8.15,6.2,1.6,3.03,2.41,6.45,2.41,10.28v3.33c2.34-1.48,4.54-2.93,6.57-4.35,2.04-1.42,3.98-2.9,5.83-4.44,1.85-1.54,3.7-3.21,5.56-5,1.85-1.79,3.82-3.8,5.93-6.02,2.72,0,4.91.68,6.57,2.04,1.67,1.36,2.93,3.18,3.8,5.46.86,2.29,1.45,4.82,1.76,7.59.31,2.78.46,5.59.46,8.43v9.26c0,2.47-.03,4.63-.09,6.48-.06,1.85-.09,3.55-.09,5.09s-.03,3.21-.09,5c-.06,1.79-.09,3.92-.09,6.39v9.07Z"/>
  <path d="M528.51,237.43c3.7-2.22,7.25-4.6,10.65-7.13,3.39-2.53,6.51-5.4,9.35-8.61-3.7-4.19-7.84-8.3-12.41-12.31-4.57-4.01-9.44-8.61-14.63-13.8,3.58-1.85,6.63-3.73,9.17-5.65,2.53-1.91,4.78-4.35,6.76-7.31,5.68,5.68,11.2,10.96,16.57,15.83,5.37,4.88,10.15,10.09,14.35,15.65,4.2,5.56,7.56,11.82,10.09,18.8,2.53,6.98,3.8,15.46,3.8,25.46v12.87c0,4.14-.03,8.18-.09,12.13-.06,3.95-.16,8-.28,12.13-.12,4.14-.25,8.43-.37,12.87-5.56,3.46-10.93,7.29-16.11,11.48-5.19,4.19-10.06,8.76-14.63,13.7-1.36-1.73-3.03-3.27-5-4.63-1.98-1.36-4.11-2.56-6.39-3.61-2.29-1.05-4.66-1.85-7.13-2.41-2.47-.56-4.88-.96-7.22-1.2l3.52-9.63v-74.63ZM565.17,272.06c.12-5.93-.16-11.26-.83-16.02-.68-4.75-1.67-9.07-2.96-12.96-1.3-3.89-2.9-7.41-4.82-10.56-1.92-3.15-4.05-6.14-6.39-8.98-.99,1.61-1.92,3.12-2.78,4.54-.87,1.42-1.48,2.44-1.85,3.06l-.18,76.67c3.58.74,7.04,2.01,10.37,3.8,3.33,1.79,6.23,3.61,8.7,5.46l.74-45Z"/>
</svg>