<svg xmlns="http://www.w3.org/2000/svg" viewBox="0 0 397.65 402.08" fill="currentColor">
  <path d="M393.14,125.05c-1.11-4.35-3.03-11.31-4.71-15.31-1.03-2.46-1.41-1.86-1.28.27.3,4.95,3.76,10.47,4.81,15.21,2.03,9.21,2.72,21.27,3.22,30.76l-1.98,13.5c1.91-36.81-12.53-74.88-34.6-103.91-9.38-12.33-26.2-27.11-38.78-34.7C280.73,7.29,239.69-2.29,195.65.46c-5.38.34-13.35.21-17.45,3.54,3.94.65,8.49-.09,12.44-.56,3.29-.4,7.12-1.9,11.53-1.52,31.47,2.71,60.12,7.41,88.77,20.28,12.44,5.59,24.49,12.95,34.87,21.68,9.47,7.97,15.93,10.86,24.93,21.56,10.65,12.68,20.34,26.26,22.65,42.33.12.8,5.2,14.22,5.75,15.17.42.73,2.58-.59,3.05,1.06l-1.98.48c-.61,1.79,1.52,2.34,1.72,3.64.19,1.15-.95,2.63-.65,3.76.37,1.36,4.56,1.51,2.9,5.61l-2.02-1.49c-1.42,3.52,3.02,6.67,3.03,7.08.04,1.13-1.09,2.99-1.06,4.87.08,4.88.49,9.74,1.07,14.54l3-1.48c-2.47,4.23-.2,12.08-.98,15.81-.17.79-2.03.61-2.11,1.3l1.07,4.37-2.98-3.99c-1.74,3.56,2.08,5.26,2.07,6.42-.05,7.34-5.5,17.11-6.06,24.11-.04.49-.05.98-.02,1.46l2.99,2-3.99-.99-1.98,10.51,2.96.49-2.5,10-2.01-1.01c.42,4.31-7.07,7.09-2.98,12.01l1.54-4.96,2.94.46-8,25.5c-1.49.5-.72-3.87-2.97-1.99-.59.5-6.36,13.01-6.62,14-.46,1.75.56,3.6.43,3.85-.09.17-2.02.6-3.07,2.39-2.56,4.36-3.82,10.3-5.83,13.97-10.44,19.04-37.48,45.92-56.58,56.63-1.56.88-3.41,1.04-4.87,2.13l-.48-1.97c3.38-1.87,8.29-4.05,11.33-6.18,28.23-19.77,33.22-30.82,48.26-59.78.52-1.01,4.12-2.53,3.41-6.05l1.98,1.99c-.87-5.48,2.03-10.22,4.68-14.77,2.35-4.03.61-1.61,1.52-4.48,8.13-25.55,18.76-63.96,18.51-90.47-.02-2.24-1.94-3.12-1.7-5.28l3,.49c-.79-4.65.3-9.21-.09-13.91-.95-11.37-6.51-37.28-12.01-46.9-.59-1.02-1.71-2.37-2.9-2.68,1.82,6.84,5.32,13.43,7.27,20.22,11.6,40.53-1.96,97.07-14.75,135.81-3.33,10.11-21.02,44.25-29.01,50.01-1.04.75-2.26.95-3.5,1.01l.51,2.96-3.54.47,1,2.02c-1.44,2.8-4.35,1.9-5.73,2.77-.67.43-3.9,6.57-5.24,8.04-4.07,4.43-13.25,7.75-19.09,12.16-11.06,8.36-25.95,14.37-39.98,18.99-4.37,1.44-11.25,3.91-15.57,4.44-1.08.13-3.63.86-3.38-.88,38.03-9.18,66-34.99,90.51-64,27.44-32.49,40.88-62.33,43.48-105.52,3.07-51.01-32.82-118.6-74.68-147.31-35.59-24.42-105.41-23.37-146.72-16.09-4.13.73-8.17,3.17-12.59,2.89.77-1.81,4.45-2.59,6.22-3.26,5.6-2.11,11.77-4.17,17.77-4.74.26-1.73-2.34-1.04-3.39-.89-6.63.96-15.1,4.02-21.28,6.72-9.65,4.22-17.76,10.9-27.33,15.16l19.99-13c-1.77-2.99-6.24,2.13-8.48,2.02-1.29-.23.6-1.71,1-2,3.95-2.75,10.1-6.27,14.48-8.02.26-1.46-2.28-1.69-3.1-1.49-3.89.96-12.92,4.97-17.14,6.76-2.94,1.24-5.86,4.03-9.19,4.79l-4.57-4.04c6.19-4.3,12.81-7.51,19.36-11.15,1.04-.58,3.03-2.11.16-1.85-3.83,1.04-7.62,3.62-11.04,4.97-2.8,1.1.84-3.09-1.96-1.97-3.19,1.28-10.4,3.2-11.94,4.11-7.67,4.53-23.48,16.95-30.28,23.19-22.86,20.98-51.23,82.38-56.03,113.46-1.29,8.33-.19,19.34-2.36,26.45-1.45,4.76-3.2,11.46-3.79,17.4-2.29,23.1,8.38,51.72,16.6,73.16,14.66,38.22,25.72,66.79,63.2,87.8,1.1.62,4.98,3.87,6.09,4.91,3.76,3.53-5.1-1.39-2,2,3.19,1.1,5.82,3.98,8.73,5.27,19.69,8.69,40.12,18.4,61.92,21.17,50.35,6.4,108.6-5.92,151.64-33.1,8.81-5.56,17.52-11.74,24.68-19.32l-8.25,4.49c-27.57,23.65-70.36,41.49-106.25,41.93-2.98.04-5.9,1.63-9,1.08l.5,1.99-8-2.5c13.74-1.51,27.53-2.87,41.01-5.98,9-2.08,21.35-4.65,27.5-11.5l1.97,2,3.36-2.16-.85-1.83,7-.02-1.99-1.97,6.5-3.01c1.44.19-2.09,3.96.97,2.98,4.23-1.35,3.65-4.64,5.2-6.05,2.02-1.83,6.69-1.22,9.85-2.9,8.08-4.29,13.8-11.86,20.98-17.04,1.12-.81,3.91-.85,4.82-1.89,1.04-1.18.44-2.77,1.75-4.54,2.99-4.06,9.89-6.51,13.89-11.11,17.52-20.12,28.35-47.27,38.46-72.56,1.54-3.85,1.41-6.17,1.98-9.96.69-4.58,6.28-8.87,3.6-13.94l1.98,1.02c-1.74-5.58.91-9.51,1.88-14.63,6.36-33.39,11.71-61.06,3.07-94.82ZM171.58,257.37c-6.06,2.55-21.34,5.49-27.84,5.14-7.77-.42-12.83-4.54-13.59-12.47-2.41-25.03.31-57.14.09-83.09-.15-18.61-2.24-37.14,2.21-55.75.42-1.75.69-2.79,2.74-2.72l-1.99-1.98c18.2.68,33.9,9.67,49.67,17.82,28.12,14.54,55.01,31.66,83.22,46.05l.59-1.88c8.38,5.61,22.48,11.96,17.42,24.41-4.05,9.96-17.83,9.9-23.89,18.1l10.99-1.5c.32,1.46-.15,1.62-1.05,2.44-9.22,8.42-36.92,16.7-49.62,22.38-16.44,7.35-32.47,16.12-48.94,23.06Z"/>
  <path d="M338.2,342c2.49-1.96,6.43-6.36,8.61-8.88,3.37-3.89,7.41-8.83,9.38-13.62l-20.97,22.5c1.8,2.25,1.4,1.24,2.98,0Z"/>
  <path d="M362.21,310.49c3.82-4.08,7.38-10.54,8.98-15.99l-7.62,11.86-1.36,4.13Z"/>
</svg>
