<?xml version="1.0" encoding="UTF-8"?>
<svg id="Lager_1" xmlns="http://www.w3.org/2000/svg" version="1.1" viewBox="0 0 1080 1440">
  <!-- Generator: Adobe Illustrator 29.8.6, SVG Export Plug-In . SVG Version: 2.1.1 Build 1)  -->
  <defs>
    <style>
      .st0 {
        fill: #fff;
      }
    </style>
  </defs>
  <path class="st0" d="M95.43,1439.4c6.05-.87,8.75-4.86,17.57-5.67,27.69-2.57,83.81-2.61,112.75-1.83,100.64,2.71,194.59,5.91,295.6,1.9,15.43-.61,78.98,1.55,88.82-4.82,3.46-2.24,2.67-8.91,8.81-8.53,2.41.15.38,3.37,2.16,5.01,4.02,3.71,11.33,7.94,17.88,8.47,10.04.8,22.88,1.05,36.29,1.02.4-.16.79-.37,1.17-.64l-1.21-1.95,6.63-2.66c-3.5-.41-7.31,1.8-10.35-.81,4.66-2.7,10.09-3.22,15.22-4.77,1.31-.39,2.21-1.39,3.27-1.7,2.44-.72,9.84-1.65,11.16-2.36,2.54-1.37,4.48-6.15,6.7-7.7.31-.22,7.27-2.77,7.69-2.85,2.21-.37,4.01.64,5.78.41,2.96-.39,12.12-8.02,10.98,1.81,3.2,1.62,4.25-.79,6.56-1.5.61-.19,13.62-3.82,7.19-3.69-4.58.09-6.96,3.62-11.96-.86-.9-1.54,8.44-3.4,10.05-3.3,1.11.07,2.35,1,3.89,1.1,3.42.22,6.44-1.38,9.77-.24l-3.26,2.35,3.8,1.05c-2.21,5.23-6.61,2.78-11.9,2.44-1.91,2.51,4.72,4.36,6.79,3.92,1.11-.23,2.55-2.95,7.74-2.75,6.23.24,12.79.8,18.94,1.31,1.25.1,6.08-.38,4.31-1.88-4.56-2.92-11.01-2.38-16.65-2.13,1.55-1.96.1-2.51-1.32-4.05l2.75-1.68c.95-1.96-7.19-4.37-9.05-5.34,3.04-2.59,7.65,3.93,9.73-.49l-1.2-1.63c1.34-.9,6.97-1.81,7.84-.71,1.46,1.86-4.21.77-4.38,2.45l3.79,4.42c8.77-1.89,14.38-4.32,22.69.83l-1.04,2.1c-1.52.87-15.9-5.87-18.78-1.03,3.02-.58,4.48,1.38,7.02,1.91,2.02.42,4.43-.17,6.58.22,8.15,1.44,11.21,5.47,18.79,7.67,1.91.55,3.74.16,5.58.64l-1.91,1.83,3.99,2.83c.38,1.08-8.33,1.08-6.43,5.62.52,1.24,2.33.35,3.05.94.22.18-.33,1.27.67,1.91,1.51.97,5.03,2.9,6.79,3.25.43-.68.64-1.46,1.04-2.16l-4.22-2.38,9.68-3.45,2.55,4.76c-5.76-3.34-2.56,1.36-3.71,2.26-1.65.68-3.38,1.36-5.34.97-.03.05-.08.1-.13.16,1.71.11,3.4.26,5.06.44.54-.32,1.12-.56,1.82-.61,1.39-.11,2.26.48,2.89,1.23,2.99.47,5.82,1.07,8.38,1.84,3.94-.93,8.42-2.37,9.93-3.12-6.02-1.28-6.47-10.25-.07-7.55.85.36.28,1.73.75,2.21.77.76,5.93,2.96,7.7,4.04.63.38.64,3.02,4.82,2.88l1.48-2.02c2.49,1.8,3.78,4.92,5.27,7.11,3.25-.09,6.29-.18,8.8-.16,9.79.06,19.28-.02,28.63-.31-1.18-.33-2.19-.99-2.91-2.21-1.71-2.89,5.1-5.57,6.16-6.5,1.81-1.59,3.8-5.09,6.93-6.51,1.73-.78,3.69,0,5.52-.33,1.87-.35,3.43-1.39,5.44-1.52,2.32-.15,4.61,1.38,7.66,1.04,3.23-.35,6.53-3.67,9.9-3.16.71.11,9.02,2.96,9.94,3.37,1.23.55,8.85,7.29,7.11,8.81-1.57,2.49-5.6,1.29-8.06,2.39-1.03.46-2.14,1.26-3.33,2.11,26.9-.71,46.47,2.66,75.51,6.07,18,2.11,34.94-.06,52.03.41-1.98-99.53-5.41-199.53-6.48-298.11-.12-10.66,1.8-23.42,2.53-35.24-.64-.36-1.4-.66-1.62-1.44-.71-2.41,1.56-8.4,1.54-11.59,0-.76,0-1.52,0-2.29-.97-6.73-4.26-6.94-14.84-10.23l12.52-.93c-.47-12.98.56-26.08.09-39.08-.74-20.5-4.93-41.52-6.28-61.99-.64.15-1.33.27-2.15.31-.86.04-2.24-1.07-3.3-.83-2.6.58-3.19,4.13-8.4,1.66l-1.27-3.65c-.58-.33-3.09,1.87-3.91-.54-3.39.43,2.7,3.9,2.6,4.72-.63,1.48-2.66,1.75-3.88,2.45.69.41,2.15.41,2.65,1.21l.46,6.73-5.69-6.69c.17-.84,1.96-.9,2.58-1.25-1.13-.67-3.38-1.42-3.89-1.87-1.03-.91-2.16-6.55-5.39-8.06-1.04-.49-3.3,1.78-4.82.03,1.83-1.78,10.3-7.21,10.71-8.96.06-.25-.94-.8-.89-.96.18-.53,1.91-.54,2.21-1.25.06-.14-.93-.86-.84-1.45.65-4.24,1.66-4.47-3.39-7.84l1.7-1.45-3.74-1.37,3.73-4.63c-.98-1.65-4.65,1.03-5.17-1.27-.03-.13,2.28-1.91,2.44-1.97.78-.31,1.96,1.39,2.97-.59-4.32-2.19-7.09.7-10.34.48-1.73-.12-2.29-.87-1.6-1.52.91-.86,16.77-2.98,16.33-4.15l-2.33-1.49c-.15-.45,4.2-.19,4.12-1.37-.15-2.14-3.54,1.17-4.38-.78l1.76-2.86-2.16-.37c3.11-1.74,2.31-5.18,3.06-6.54,1.4-2.51,5.58-4.03,7.06-6.34.34-.54-1.08-1.3-.7-1.78,1.35-1.74,4.59-1.56,2.89-4.99.28.03.55.02.82.03-1.58-14.58-1.84-40.03-1.2-49.39,1.98-28.95.76-47.44-.13-76.02-.96-30.87,2.26-61.78-3.51-92.44-3.52-3.79-20.18-1.05-18.97-6.55.73-5.79,13.09-11.68,14.58-15.59,2.2-5.78,1.67-18.5,3.41-25.94.49-2.1.96-4.2,1.42-6.3-1.04.61-1.71.56-2.7-.41l4.15-10.94.88-.05c.21-1.08.41-2.16.61-3.24-.59-.67-1.23-1.34-1.56-2.13-1.12-2.63-.38-6.04-4.14-7.6l-6.17,14.03c-1.12.06-2.13-3.65-2.2-4.47-.65-7.96,4.23-20.33,3.57-28.02-.41-4.81-1.91-7.45-1.33-12.97.71-6.65.38-19.17,2-24.69.56-1.91,6.99-10.14,7.16-10.76.27-.95-1.03-2.2-.99-3.39.1-3.01,1.13-21.42,1.95-22.89,1.25-2.24,4.12-2.56,5.68-4.67,3.62-4.93,2.45-15.16,2.91-20.94.19-2.37,3.68-10.4-2.33-6.37-2.08-5.12,3.15-7.22,5.19-11.53-6.13-3.38-2.16-3.54-1.01-6.73.33-.91-.48-2.22-.27-3.25.83-4.05,2.06-7.22.67-11.48l-2.43.45c.82-1.4,2.29-3.31,2.46-4.8.79-6.97-1.2-18.92.81-25.65.09-.32.23-.61.38-.9-.01-1.75-.02-3.49-.02-5.24l-.21-.13c.07-.19.13-.38.2-.57-.03-34.13,1.24-68.36-7.78-101.96l5.08-3.65c.05-.11.1-.23.15-.34-.98-2.73-1.74-5.47-2.36-8.22l-2.52,2.53c-5.43-4.04-2.87-6.8-3.06-10.94-.26-5.55,1.06-16.63-.55-20.92-.36-.95-2.34-1.45-2.41-2.83-.07-1.31,2.62-4.58,2.86-6.23l-2.74-1.67,2.06-3.69-4.12,4.37c-.9.12-2.33-5.18-2.37-5.82-.3-4.83,1.39-11.76,1.32-17.25-.1-7.68-2.04-15.88-.73-23.36.37-2.11,2.87-4.01,1.4-6.64l-2.82.2-1.04-5.64c-1.7,2.36-.25,5.83-4.51,7.12-1.76-4.24-.56-8.3-.74-12.49-.05-1.07-.97-2.05-1-2.91-.07-1.99,1.3-7.59.87-8.77-.83-2.28-6.1-5.29-7.27-7.4-.17-.3-.97-6.13-.92-6.46.29-1.71,2.15-2.65,2.47-3.99.52-2.24-5.82-11.38,5.97-7.23,3.09-1.74.46-3.3.37-5.19-.02-.5-.11-11.03-2.13-6.39-1.44,3.3,2.12,6.2-5.12,8.25-2.22.12-1.34-7.18-.68-8.3.46-.77,2.04-1.34,2.69-2.41,1.43-2.37.48-5.07,3.02-7.06l1.81,3.13,2.59-2.36c5.73,3.35,1.2,5.67-1.01,9.33,2.46,2.21,7-1.89,7.16-3.52.09-.87-2.79-2.82-.78-6.46,2.41-4.37,5.34-8.86,8.05-13.09.07-.1.14-.25.21-.42.02-1.08.04-2.15.07-3.23-.24-.18-.61-.24-1.15-.07-5.17,2.26-6.68,7.06-8.29,11.17-1.9-1.77-3.08-.92-5.46-.43l-1.15-2.54c-2.11-1.34-7.85,3.66-9.69,4.65-2.17-3.05,7.46-4.13,2.69-7.11l-2.43.3c-.66-1.26.12-5.6,1.78-5.84,2.8-.41-.48,3.27,1.55,3.96l6.77-1.21c.64-6.9-.47-11.74,8.73-15.93l2.25,1.45c.57,1.38-12.67,9.36-7.65,13.07.31-2.36,3.23-2.73,4.75-4.36,1.21-1.3,1.3-3.22,2.5-4.63,1.54-1.8,3.25-3.08,5.04-4.18.38-18.8.68-37.73.61-57.01-.06-13.86-.04-27.68.19-41.58-1.04-.61-2.01-1.06-2.91-1.25-7.61-1.67-24.36-1.27-34.16-2.59-49.65-6.7-101.73-9.61-153.77-10.77l-.71.94,3.89,2.89-.68-2.71c4.5-2.82,6.11,3.3,9.21,4.95-2.22.39-3.83.25-5.41,1.81-1.8,1.77,1.43,3.14-.7,3.82-4.71,1.51-2.57-2.53-2.8-2.68-4.8-3.17-6.51,1.03-10.05,2.06-3.38.99-11.27-2.41-12.83-.61-.08,4.29,8.46,3.26,12.08,5.45,1.39.84,5.28,3.72,2.8,4.94-3.59.21-6.32-1.23-9.99-1.18-1.22.02-8.52.86-9.34,1.1-2.78.81-2.87,3.57-6.06,3.75-1.56-.04-4.32-1.63-5.17-2.64-.34-.4.43-1.09.31-1.49-.2-.62-1.11-1.23-1.09-1.58.07-.91,1.65-1.74,1.53-3.01-.22-2.39-4.2-1.99,1.32-3.69-2.38-2.74,7.98-6.29,11.12-5.95,2.52.27,3.86,2.82,5.71.8-3.96-1.78-6.57-3.33-11.38-3.31,1.15-1,3.39-.88,4-2.37.05-.13-.09-.82-.33-1.72-7.23-.09-14.45-.15-21.66-.19-.36.42-.73.9-1.11,1.49l1.91,1.6c-2.41,3.03-4.49,1.25-7.45,1.31-1.59.03-3.45.89-5,.51-4.21-1.05-5.84-4.96-11.78-.87l-.43-2.36c-3.04-.43-6.67.81-8.81-1.48l.26-.25c-3.68,0-7.35.02-11.01.03l-3.16.93c-.86,3.24,5.52,2.3,6.36,4.92-4.45.2-6.71-1.78-11.41-1.7-3.81.06-11.42,2.98-12.88,2.66-1.65-.35-3-2-4.97-2.7-4.03-1.44-9.8,1.03-13.91-2.56-3.3,1.73,1.58,2.04,2.86,3.51.46.53.8,2.45,1.01,3.3-1.71,1.29-9.58.01-12.14-.28-13.36-1.55-26.48-4.98-39.6-7.83-33.58.06-67.1.82-100.14,5.93l-5-4.02c-24.61,5.17-50.04,2.96-75.14,3.86-88.77,3.21-171.85-.13-260.42.07-36.33.08-72.42-.03-109.67-1.27-9.16-.3-15.13,5.4-20.52-4.54-11.44,7.54-13.74.02-22.36-.09C86.29.32,66.48-.05,49.36,0c1.79.33,3.28,1.04,3.83,2.67l-13.62,1.51c6.27,3.13,3.41,16.44-2.93,16.21-3.02-.11-2.35-5.67-3.43-6.99-.84-1.03-4.91-1.33-5.33-2.63-.98-3.06,6.98-6.49,7.21-6.91.26-.45-.13-2.04-.22-3.67-3.71.1-7,.23-9.68.42l-3.17.59c-4.35,8.78,12.32,16.23.72,22.04-10.03,5.03-15.29-7.09-17.22-7.19C2.5,16.67.9,18.43,0,20.61c1.2-.15,2.42-.46,3.69-1.13,3.51.96,13.92,7,16.04,7.17.67.05,10.22-3.16,12.89-2.78l1.03.6c4.09,8.51,11.76,15.16,7.49,24.53-1.59,3.5-9.24,8.34-13.16,11.01-1.13.77-2.58,1.48-4.03,2.23,3.02.24,6.04.48,9.05.78,2.75.27,7.72-.76,6.58,2.48-.72,2.03-7.98-.85-10.71-.74-3.33.14-6.76.83-10.28,1.32-.82,1.23-.91,2.66.34,4.45l-1.75-1.9c-2.13.13-.2,5.66.61,6.68,7.32,5.35,18.1,10.1,24.57,15.97,1.39,1.26,5.55,6.3,5.69,7.62.29,2.59-3.95,4.22-4.51,5.92-1.2,3.62,4.64,9.07,2.01,13.56-2.86-1.63-8.41,3.95-8.59,4.84-.2.99,1.69,1.78.35,2.44l-3.21-.27-.32-3.52-1.11,2.97c-2.32-.96-1.36-4.7-2.51-7.07-.63-1.29-2.79-2.25-3.03-3.53-.19-.98,1.44-3.66.72-5.16l3.89,1.38c-2.38-1.96-1.36-3.79-1.13-6.09l-4.83-1.26c-1.18,2.47,1.12,5.8-3.3,6.74l2.12,2.72c-2.44-1.08-5.58-2.24-8.19-3.02-1.09-.32-.82-1.5-2.48.25.79,1.98,3,4.31,3.25,6.26.24,1.85-1.58,3.57-1.57,4.87.02,2.85,4.33,5.55-.47,9.49l6.4.58-2.72,1.02c2.59,2.87-1.01,2.55-1.93,4.07-1.74,2.89.76,6.03.68,7.32-.02.27-1.85.48-1.55,1.37.25.74,3.91,2.97,2.12,5.98l-1.74-.64-.76,1.43-1.05-2.98c-1.49-.39-1.49.76-1.4,1.62.38,3.66,9.51,6.23,11.03,9.52,1.54,3.34-2.5,1.21-2.61,1.37-1.29,3.18,2.52,3,3.54,4.9,1.05,1.95-2.78.02-3,1.53-2.93-1.24-2.79.59-3.17.63-.58.07-1.52-1.67-2.8.23l2.11,1.54,2.18-1.52c1.93,2.44.44,4.16-2.22,5.95l-1.39-3.25,1.04,6.26,2.11-.56.33,2.44,2.19-3.77c.71,3.69,9.91,2.3,4.21,6.52-2.62-4.17-7.67-2.22-10.23,1.17l1.98,4.48-2.86.52.66,5.43,2.5-1.34,5.66,5.45c.5-.52,2.09-1.32,2.15-1.61.4-2.12-1.96-.4-2.39-.35-2.92.34,2.69-4.21,3.17-4.52-1.25,3.73,4.38,4.7,3.97,6.78-1.05,5.2-5.91.85-10.08,1.06-1.28.83.1,8.85-3.51,3.88,3-1.08.58-3.3-2.23-2.83,2.91,5.69-3.66,11.09.88,16.54l-4.27,1.06,4.96,2.74c-5.48,1.95-2.13,3.93-1.73,6.77.28,1.93-2.47,3.12.91,4.61l1.08-1.35,1.74,3.45,1.78-.72-1.41,3.81-2.53-.31,2.11,2.73,2.13-.53-2.15,1.63,3.54,1.63c-3.11,1.47-3.71,2.45-5.04,4.85-3.86-3.54-11.01-4.13-13.47-9.29l-1.11,1.37c.11,2.19.17,4.38.16,6.58.34-.16.73-.39,1.18-.7,2.82,1.4,9.55,4.18,8.58,7.17-.87,2.72-5.44,1.31-6.14,4.01l-2.13-1.46-1.2.8c21.7,19.78,20.06,55.58,15.56,80.8-.29,1.65,1.52,3.85.92,5.4-.99,2.57-7.02,3.02-8.54,5.4-1.7,2.68-2.85,16.09-1.74,19.39,3.61,10.71,1.23,10.07,2.69,19.85.61,4.05,8.29,13.13,1.01,15.46-6.12,1.96-3.47-3.01-6.78-2.94,1.21,7.84-1.78,18.37.06,25.8.89,3.57,4.97,5.17,5.81,10.37,2.63,16.34,2.68,49.46,1.88,66.54-2.18,46.7-4.66,90.97-3.63,136.74l3.34,1.75-1.91,3.78-1.32-.58c.27,9.45.7,18.98,1.31,28.6,5,.88,11.74,4.29,4.31,6.34,1.66,4.71-.84,1.3-1.15,1.17-.13-.06-1.65.89-2.79.06.17,12.69-1.07,43.77,4.82,49.02,2.29,2.04,9.12,1.57,8.73,5.2-.15,1.42-3.45.22-5.12,1.27-3.79,2.37-8.13,6.68-8.67,10.55-1.99,14.32-.66,38.31.06,53.29.78,16.36,5.4,33.08,4.9,50.22-.19,6.61-1.38,13.47-4.82,17.99-3.45,4.54-1.88,14.73-1.95,20.4-.12,11.31.29,21.96,1.84,32.63,3.17,21.81-1,34.35-5.2,55.02-2.36,11.59.51,22.43-.62,33.46-.18,1.8-2.57,3.17-2.86,4.58-1.42,6.84,9.69,5.22,10.67,8.97l-7.87,6.02c-1.07,5.41,5.95,8.18,6.14,10.11.47,4.79-3.86,3.43-4.13,4.68-1.03,4.7,3.28,17.18-.05,23.38l5.98.79c-1.69,1.68-.2,6.85-.48,7.14-.56.6-3.5.71-4.34,1.68-3.67,4.21,2.18,11.32.9,16.3l-5.81-1.47c-1.19,3.35,3.5,5.52,3.85,8.19.48,3.73-2.95,12.5-2.77,17.68.59,17.01,8.06,44.06,3.92,59.95-.75,2.88-4.64,5.48-4.58,7.79.07,3.13,4.83,6.28,5.4,9.26,4.08,21.35,3.45,43.74,4.01,66.18.47,18.5,1.48,34.12-2.18,53.34-.75,3.92-5.92,9.45-5.58,13.5.18,2.19,9.46,10.15,11.36,14.81,10.21,24.96,7.57,55.35-9.88,77.96-.95,5.19-1.65,10.4-2.17,15.61,9.37-1.21,11.41.02,24.57-1.11,6.87-.59,22.24-8.1,26.2-.99,3.32,5.98-5.09,3.39-4.98,6.62,13.28-1.19,31.13,1.74,43.71-.06Z"/>
</svg>