<?xml version="1.0" encoding="UTF-8"?>
<svg id="Lager_1" xmlns="http://www.w3.org/2000/svg" version="1.1" viewBox="0 0 1920 1080">
  <!-- Generator: Adobe Illustrator 29.8.6, SVG Export Plug-In . SVG Version: 2.1.1 Build 1)  -->
  <defs>
    <style>
      .st0 {
        fill: #fff;
      }
    </style>
  </defs>
  <path class="st0" d="M22.03,99.85c1.13,5.99,6.33,8.67,7.4,17.41,3.35,27.43,3.41,83,2.39,111.67-3.53,99.67-7.71,192.72-2.48,292.77.8,15.29-2.02,78.22,6.29,87.97,2.92,3.42,11.62,2.64,11.13,8.73-.19,2.39-4.39.38-6.53,2.14-4.83,3.98-10.36,11.22-11.05,17.7-1.05,9.94-1.37,22.66-1.33,35.94.21.39.48.78.83,1.16l2.54-1.2,3.47,6.57c.54-3.47-2.35-7.24,1.05-10.25,3.52,4.61,4.2,9.99,6.22,15.07.52,1.3,1.81,2.19,2.22,3.23.95,2.42,2.15,9.75,3.07,11.05,1.78,2.52,8.03,4.44,10.05,6.63.29.31,3.62,7.2,3.71,7.61.49,2.19-.83,3.97-.53,5.72.5,2.93,10.46,12.01-2.36,10.88-2.11,3.17,1.04,4.21,1.95,6.5.24.61,4.98,13.49,4.81,7.12-.12-4.53-4.72-6.89,1.12-11.84,2.01-.89,4.43,8.36,4.3,9.95-.09,1.1-1.31,2.33-1.44,3.86-.29,3.39,1.8,6.38.31,9.68l-3.07-3.23-1.37,3.76c-6.82-2.18-3.62-6.55-3.19-11.79-3.27-1.89-5.68,4.67-5.12,6.72.3,1.1,3.85,2.53,3.59,7.67-.31,6.17-1.05,12.66-1.71,18.76-.13,1.24.5,6.02,2.46,4.27,3.81-4.51,3.1-10.91,2.78-16.49,2.55,1.53,3.27.1,5.28-1.3l2.19,2.73c2.56.94,5.69-7.12,6.97-8.97,3.37,3.01-5.13,7.57.64,9.63l2.13-1.18c1.17,1.32,2.37,6.9.92,7.76-2.43,1.45-1-4.17-3.2-4.34l-5.77,3.76c2.46,8.68,5.64,14.24-1.09,22.48l-2.74-1.03c-1.14-1.5,7.66-15.75,1.35-18.6.76,2.99-1.8,4.44-2.49,6.95-.55,2,.22,4.39-.28,6.52-1.88,8.07-7.14,11.1-10,18.61-.72,1.89-.21,3.7-.83,5.53l-2.38-1.89-3.69,3.95c-1.41.38-1.41-8.25-7.32-6.36-1.62.52-.46,2.3-1.22,3.02-.23.22-1.65-.33-2.49.66-1.26,1.5-3.78,4.98-4.24,6.73.89.42,1.91.63,2.81,1.03l3.11-4.18,4.49,9.59-6.2,2.53c4.35-5.7-1.78-2.53-2.95-3.67-.89-1.63-1.77-3.35-1.26-5.29-.06-.03-.13-.08-.21-.13-.15,1.69-.34,3.37-.57,5.01.42.53.73,1.11.8,1.8.15,1.38-.62,2.24-1.6,2.87-.61,2.96-1.4,5.76-2.4,8.3,1.21,3.91,3.09,8.34,4.07,9.83,1.67-5.96,13.37-6.41,9.84-.07-.47.84-2.26.27-2.88.75-1,.76-3.86,5.88-5.27,7.63-.5.62-3.94.64-3.76,4.78l2.63,1.47c-2.35,2.47-6.42,3.74-9.27,5.22.11,3.22.23,6.23.21,8.71-.08,9.69.02,19.09.4,28.36.43-1.17,1.29-2.17,2.88-2.88,3.76-1.69,7.26,5.06,8.47,6.1,2.07,1.79,6.64,3.77,8.49,6.87,1.02,1.71-.01,3.66.43,5.46.46,1.85,1.81,3.4,1.98,5.39.19,2.3-1.8,4.57-1.36,7.59.46,3.2,4.79,6.47,4.12,9.8-.14.71-3.87,8.93-4.4,9.84-.72,1.22-9.51,8.77-11.49,7.05-3.25-1.55-1.69-5.55-3.12-7.98-.6-1.02-1.64-2.12-2.76-3.3.92,26.64-3.48,46.02-7.92,74.79-2.75,17.83.07,34.61-.54,51.53,129.8-1.96,260.23-5.36,388.8-6.42,13.9-.11,30.54,1.78,45.96,2.51.47-.63.86-1.38,1.87-1.61,3.14-.71,10.95,1.55,15.12,1.53,1,0,1.99,0,2.98,0,8.78-.96,9.05-4.22,13.34-14.7l1.22,12.4c16.93-.47,34.02.55,50.97.09,26.74-.73,54.15-4.88,80.85-6.22-.19-.63-.35-1.32-.4-2.12-.06-.85,1.39-2.21,1.08-3.27-.76-2.58-5.39-3.16-2.16-8.32l4.77-1.26c.43-.57-2.44-3.06.71-3.88-.56-3.36-5.09,2.68-6.15,2.57-1.93-.63-2.29-2.63-3.19-3.84-.54.68-.53,2.13-1.58,2.62l-8.78.46,8.73-5.63c1.1.17,1.17,1.94,1.63,2.55.88-1.12,1.85-3.35,2.44-3.86,1.18-1.02,8.55-2.14,10.51-5.34.63-1.03-2.33-3.27-.04-4.77,2.32,1.81,9.4,10.21,11.68,10.61.33.06,1.04-.93,1.25-.88.69.18.71,1.89,1.63,2.19.19.06,1.12-.92,1.89-.83,5.52.64,5.84,1.64,10.23-3.35l1.89,1.69,1.78-3.71,6.04,3.7c2.16-.97-1.35-4.6,1.66-5.12.17-.03,2.49,2.26,2.57,2.42.41.78-1.82,1.95.77,2.95,2.86-4.28-.91-7.02-.62-10.24.16-1.71,1.14-2.27,1.98-1.59,1.13.9,3.88,16.61,5.41,16.18l1.94-2.3c.59-.15.25,4.16,1.79,4.08,2.79-.15-1.52-3.5,1.01-4.33l3.73,1.74.49-2.14c2.26,3.08,6.76,2.28,8.53,3.03,3.28,1.38,5.25,5.53,8.27,6.99.7.34,1.69-1.07,2.32-.7,2.27,1.33,2.04,4.54,6.51,2.86-.04.28-.03.55-.04.82,19.02-1.56,52.21-1.83,64.41-1.19,37.76,1.96,61.87.75,99.15-.13,40.26-.95,80.57,2.24,120.56-3.48,4.94-3.49,1.37-19.99,8.54-18.79,7.55.72,15.23,12.97,20.33,14.44,7.54,2.17,24.13,1.65,33.83,3.38,2.73.49,5.47.95,8.22,1.41-.79-1.03-.73-1.7.53-2.67l14.26,4.11.07.87c1.41.2,2.81.41,4.22.61.88-.58,1.75-1.22,2.78-1.55,3.44-1.11,7.88-.38,9.91-4.1l-18.3-6.11c-.07-1.11,4.76-2.11,5.83-2.18,10.38-.65,26.52,4.18,36.54,3.53,6.27-.41,9.71-1.9,16.92-1.31,8.68.7,25,.38,32.2,1.98,2.49.55,13.23,6.92,14.03,7.09,1.24.27,2.88-1.02,4.42-.98,3.93.09,27.94,1.12,29.85,1.93,2.92,1.24,3.33,4.08,6.09,5.62,6.43,3.58,19.78,2.43,27.31,2.88,3.09.19,13.56,3.65,8.31-2.31,6.67-2.06,9.41,3.12,15.04,5.14,4.41-6.07,4.62-2.14,8.78-1,1.18.32,2.89-.48,4.24-.27,5.28.82,9.42,2.04,14.97.66l-.58-2.41c1.83.82,4.32,2.27,6.26,2.43,9.08.78,24.68-1.19,33.45.8.41.09.8.23,1.17.38,2.28-.01,4.55-.02,6.83-.02l.17-.2c.25.07.5.13.75.2,44.51-.03,89.16,1.23,132.97-7.7l4.76,5.03c.15.05.3.1.45.15,3.56-.97,7.13-1.73,10.72-2.34l-3.3-2.49c5.27-5.37,8.86-2.84,14.27-3.04,7.23-.26,21.7,1.05,27.28-.55,1.23-.35,1.89-2.31,3.69-2.39,1.71-.07,5.98,2.59,8.13,2.84l2.17-2.72,4.82,2.04-5.7-4.08c-.15-.89,6.76-2.31,7.59-2.35,6.3-.3,15.33,1.38,22.49,1.31,10.02-.1,20.71-2.02,30.47-.72,2.75.37,5.22,2.84,8.65,1.38l-.26-2.79,7.35-1.03c-3.08-1.68-7.61-.24-9.28-4.47,5.53-1.74,10.82-.56,16.28-.73,1.39-.05,2.68-.96,3.79-.99,2.59-.07,9.9,1.29,11.44.86,2.97-.82,6.9-6.04,9.65-7.2.39-.16,8-.96,8.42-.91,2.23.29,3.45,2.13,5.2,2.44,2.93.52,14.84-5.77,9.43,5.92,2.27,3.06,4.31.45,6.77.37.65-.02,14.38-.11,8.33-2.11-4.3-1.42-8.08,2.1-10.76-5.07-.15-2.19,9.37-1.33,10.82-.67,1,.45,1.75,2.02,3.14,2.66,3.09,1.42,6.61.47,9.21,2.99l-4.08,1.79,3.07,2.56c-4.37,5.67-7.39,1.19-12.17-1-2.89,2.44,2.47,6.93,4.59,7.09,1.14.09,3.68-2.76,8.43-.78,5.7,2.39,11.56,5.28,17.07,7.97.14.07.33.14.55.21,1.4.02,2.81.04,4.21.07.24-.24.31-.6.09-1.14-2.95-5.12-9.21-6.62-14.56-8.21,2.31-1.88,1.2-3.05.57-5.41l3.31-1.14c1.75-2.09-4.77-7.77-6.07-9.6,3.97-2.15,5.38,7.39,9.28,2.67l-.39-2.4c1.64-.65,7.3.12,7.62,1.77.54,2.77-4.26-.47-5.17,1.54l1.58,6.7c9,.63,15.31-.47,20.77,8.65l-1.9,2.22c-1.8.56-12.21-12.55-17.04-7.58,3.07.31,3.56,3.2,5.69,4.7,1.69,1.2,4.2,1.29,6.04,2.48,2.35,1.52,4.02,3.22,5.45,4.99,24.51.37,49.21.68,74.35.6,18.08-.06,36.1-.04,54.23.19.79-1.03,1.38-1.99,1.63-2.88,2.17-7.54,1.65-24.13,3.38-33.83,8.74-49.18,12.53-100.76,14.04-152.3l-1.23-.7-3.78,3.85,3.54-.67c3.68,4.45-4.3,6.06-6.45,9.12-.5-2.2-.32-3.79-2.37-5.36-2.31-1.78-4.1,1.42-4.99-.7-1.96-4.67,3.3-2.55,3.5-2.78,4.13-4.76-1.34-6.44-2.69-9.95-1.29-3.35,3.14-11.16.79-12.71-5.6-.08-4.26,8.37-7.11,11.96-1.1,1.38-4.86,5.23-6.44,2.77-.28-3.55,1.6-6.26,1.54-9.89-.02-1.2-1.12-8.44-1.43-9.25-1.05-2.75-4.66-2.84-4.89-6,.05-1.54,2.13-4.28,3.44-5.12.53-.34,1.42.43,1.94.3.81-.19,1.6-1.1,2.06-1.08,1.19.07,2.27,1.63,3.92,1.51,3.11-.22,2.6-4.16,4.81,1.31,3.58-2.35,8.2,7.9,7.76,11.01-.35,2.5-3.68,3.83-1.04,5.65,2.32-3.92,4.34-6.5,4.32-11.27,1.3,1.14,1.14,3.35,3.1,3.96.17.05,1.07-.09,2.24-.32.12-7.16.2-14.31.25-21.45-.54-.36-1.18-.72-1.94-1.1l-2.09,1.89c-3.96-2.39-1.64-4.45-1.71-7.38-.04-1.58-1.17-3.42-.66-4.95,1.38-4.17,6.47-5.78,1.14-11.67l3.07-.42c.56-3.01-1.05-6.61,1.93-8.72l.32.26c0-3.64-.02-7.28-.04-10.91l-1.22-3.13c-4.22-.85-3,5.47-6.42,6.3-.26-4.4,2.32-6.64,2.22-11.3-.08-3.77-3.88-11.31-3.48-12.76.46-1.64,2.61-2.97,3.52-4.92,1.88-3.99-1.34-9.71,3.34-13.77-2.26-3.27-2.66,1.57-4.58,2.83-.7.46-3.2.79-4.3,1-1.69-1.7-.02-9.48.37-12.02,2.02-13.23,6.5-26.23,10.21-39.22-.08-33.26-1.07-66.45-7.74-99.18l5.24-4.96c-6.74-24.37-3.86-49.56-5.04-74.41-4.18-87.92.17-170.2-.1-257.92-.11-35.98.04-71.73,1.66-108.61.4-9.07-7.05-14.98,5.92-20.33-9.84-11.33-.03-13.61.12-22.15.19-10.72.67-30.34.6-47.3-.43,1.77-1.36,3.25-3.48,3.79l-1.97-13.49c-4.09,6.21-21.45,3.38-21.14-2.9.14-2.99,7.39-2.33,9.11-3.4,1.34-.83,1.74-4.87,3.43-5.28,3.99-.97,8.47,6.91,9.01,7.14.59.25,2.66-.13,4.79-.22-.12-3.67-.3-6.93-.55-9.59l-.77-3.13c-11.46-4.31-21.16,12.2-28.75.71-6.56-9.94,9.25-15.15,9.37-17.05-.8-3-3.09-4.58-5.94-5.47.19,1.19.6,2.4,1.47,3.66-1.25,3.48-9.13,13.78-9.35,15.88-.07.66,4.12,10.12,3.62,12.76l-.78,1.02c-11.1,4.05-19.77,11.65-31.99,7.42-4.57-1.58-10.88-9.15-14.35-13.04-1-1.12-1.93-2.56-2.91-3.99-.32,2.99-.62,5.98-1.01,8.96-.36,2.72,1,7.65-3.24,6.51-2.65-.71,1.11-7.9.96-10.61-.19-3.29-1.09-6.7-1.72-10.19-1.6-.82-3.47-.9-5.81.34l2.48-1.74c-.17-2.11-7.38-.2-8.71.6-6.98,7.24-13.18,17.93-20.83,24.33-1.65,1.38-8.22,5.49-9.94,5.64-3.37.29-5.5-3.92-7.72-4.47-4.73-1.19-11.83,4.59-17.68,1.99,2.13-2.83-5.15-8.33-6.32-8.51-1.29-.2-2.33,1.68-3.18.35l.35-3.18,4.59-.32-3.87-1.1c1.25-2.3,6.13-1.34,9.22-2.49,1.68-.62,2.94-2.76,4.6-3,1.28-.18,4.77,1.43,6.73.71l-1.8,3.85c2.56-2.35,4.95-1.35,7.94-1.12l1.65-4.79c-3.21-1.17-7.57,1.11-8.79-3.27l-3.55,2.1c1.4-2.42,2.93-5.52,3.93-8.11.42-1.07,1.96-.81-.32-2.46-2.58.78-5.62,2.97-8.16,3.22-2.41.24-4.66-1.56-6.35-1.55-3.72.02-7.24,4.28-12.38-.47l-.75,6.34-1.33-2.69c-3.74,2.56-3.32-1-5.31-1.92-3.77-1.73-7.87.75-9.55.67-.35-.02-.62-1.83-1.79-1.54-.96.24-3.88,3.88-7.8,2.1l.83-1.72-1.86-.75,3.89-1.04c.51-1.48-1-1.47-2.11-1.38-4.77.38-8.12,9.42-12.41,10.92-4.35,1.53-1.57-2.48-1.79-2.58-4.14-1.28-3.91,2.5-6.38,3.5-2.54,1.04-.02-2.76-2-2.97,1.62-2.9-.76-2.76-.83-3.14-.09-.57,2.17-1.51-.31-2.77l-2.01,2.09,1.98,2.16c-3.19,1.92-5.42.43-7.75-2.2l4.24-1.38-8.17,1.03.73,2.09-3.18.33,4.92,2.17c-4.81.71-3,9.81-8.5,4.17,5.44-2.6,2.9-7.59-1.52-10.13l-5.85,1.96-.68-2.83-7.08.66,1.75,2.47-7.1,5.6c.68.5,1.72,2.07,2.1,2.13,2.77.4.53-1.94.46-2.37-.44-2.89,5.49,2.66,5.89,3.14-4.86-1.24-6.13,4.34-8.84,3.93-6.79-1.04-1.11-5.86-1.38-9.99-1.08-1.27-11.54.1-5.06-3.47,1.41,2.97,4.3.57,3.7-2.21-7.42,2.88-14.47-3.63-21.57.87l-1.38-4.23-3.57,4.91c-2.54-5.43-5.12-2.11-8.83-1.71-2.52.27-4.07-2.44-6.01.91l1.76,1.07-4.5,1.73.94,1.76-4.96-1.4.4-2.51-3.56,2.09.7,2.11-2.13-2.13-2.12,3.5c-1.91-3.08-3.19-3.68-6.33-4.99,4.61-3.82,5.38-10.91,12.11-13.34l-1.79-1.1c-2.85.11-5.71.17-8.58.16.2.33.51.72.92,1.16-1.83,2.8-5.45,9.45-9.36,8.5-3.55-.87-1.71-5.39-5.23-6.08l1.9-2.11-1.04-1.19c-25.79,21.5-72.49,19.87-105.38,15.41-2.15-.29-5.02,1.5-7.04.92-3.35-.98-3.94-6.96-7.04-8.45-3.49-1.69-20.99-2.82-25.29-1.72-13.97,3.58-13.14,1.21-25.89,2.66-5.29.6-17.12,8.21-20.17,1-2.56-6.06,3.92-3.43,3.83-6.71-10.22,1.2-23.96-1.76-33.65.06-4.66.88-6.74,4.92-13.53,5.75-21.32,2.6-64.51,2.65-86.79,1.86-60.91-2.16-118.65-4.61-178.34-3.59l-2.29,3.31-4.93-1.89.75-1.31c-12.32.26-24.75.7-37.3,1.3-1.14,4.95-5.59,11.63-8.27,4.27-6.15,1.64-1.69-.83-1.52-1.14.07-.13-1.16-1.63-.08-2.76-16.56.16-57.09-1.06-63.93,4.78-2.66,2.27-2.05,9.03-6.78,8.65-1.86-.15-.29-3.41-1.66-5.08-3.09-3.76-8.72-8.05-13.76-8.59-18.67-1.97-49.97-.65-69.51.06-21.34.78-43.15,5.35-65.5,4.86-8.62-.19-17.57-1.37-23.47-4.77-5.92-3.42-19.22-1.87-26.6-1.93-14.75-.12-28.63.29-42.55,1.82-28.44,3.14-44.79-.99-71.76-5.15-15.11-2.33-29.26.5-43.64-.61-2.35-.18-4.14-2.55-5.97-2.84-8.91-1.4-6.81,9.6-11.7,10.57l-7.85-7.79c-7.06-1.06-10.67,5.9-13.18,6.08-6.24.47-4.48-3.82-6.1-4.09-6.13-1.02-22.41,3.25-30.49-.05l-1.04,5.92c-2.2-1.67-8.93-.2-9.31-.47-.78-.56-.92-3.46-2.19-4.3-5.5-3.63-14.77,2.16-21.26.89l1.92-5.75c-4.37-1.18-7.2,3.47-10.68,3.81-4.87.48-16.3-2.92-23.06-2.74-22.19.59-57.46,7.99-78.19,3.88-3.75-.74-7.15-4.59-10.16-4.54-4.09.07-8.19,4.78-12.07,5.35-27.84,4.04-57.05,3.41-86.31,3.97-24.13.46-44.5,1.47-69.56-2.16-5.12-.74-12.33-5.86-17.61-5.53-2.85.18-13.24,9.37-19.32,11.25-32.56,10.11-72.19,7.5-101.68-9.79-6.77-.94-13.56-1.63-20.36-2.15,1.58,9.28-.03,11.3,1.45,24.34.77,6.8,10.57,22.03,1.29,25.95-7.8,3.29-4.42-5.05-8.64-4.93,1.55,13.15-2.27,30.83.08,43.29Z"/>
</svg>