<?xml version="1.0" encoding="UTF-8"?>
<svg id="Lager_2" xmlns="http://www.w3.org/2000/svg" version="1.1" viewBox="0 0 1920 131.69">
  <!-- Generator: Adobe Illustrator 29.8.6, SVG Export Plug-In . SVG Version: 2.1.1 Build 1)  -->
  <defs>
    <style>
      .st0 {
        fill: #fff;
      }
    </style>
  </defs>
  <path class="st0" d="M9.79,69.76c9.37-1.02,19.08,2.11,27.93,2.37,2.05.06,7.19-.98,8.42-.04.26,1.91-1.29.68-2.21.77-8.29.79-18.51-.66-26.19.3-.49.06-2.49.72-2.44.95l3.39.96c-.47.92-1,1.15-1.91,1.47-3.77,1.34-13.17-1.72-17.01-.66v26.03c.71.01,1.42,0,2.14-.05,2.2-.16,3.96-1.12,5.91-1.26,2.6-.19,2.62,1.81,4.5-1.14,5.21.74,10.95-.67,16.4-.07,10.17,1.12,19.64,2.52,30.32,2.72,7.12.14,14.38-.12,21.48-.42l.58.84-2.95.63,1.36,1.46-4.27,1.28,3.66,1.14c.46.35-.47,1.32-.74,1.48-.53.29-10.7.2-12.16.08-2.89-.23-5.85-2.59-7.71.03.02.65,6.79-.62,4.77,2.4-.51.42-10.75-1.61-13.25-1.06-.74.16-1.12.05-1.51.93l1.76.93-3.22.42c-1.56-.49,1.43-1.95-2.18-2.36-.67-.08-7.12.19-7.49.32-1.39.47-2.48,3.2-5.82,1.77l-.23-1.83-13.26.58c.37,1.45,5,.07,3.32,2.12-3.1-.08-5.92-1.14-8.52,1.31-1.79-2.92-5.26,1.4-8.2-2.05l-1.59,2.03,4.24,2c-2.46.03-5.03,1.85-7.32,2.92v12.62h1389.4c-1.93-1.54-3.8-3.73-3.59-4.22.25-.61.62-.96,1.06-1.16.32.34.47.72.56.72.21,0,.88-.3,1.66-.65,2.1.67,4.57,2.55,5.83,2.99,1.61.57,4.39.25,5.93.83.97.36,1.72,1.01,2.49,1.49h517.13V35.48c-2.33.24-4.99.3-5.62-.21-.52-.42-.04-2.96-1.78-3.24-1.68-.27-2.75,2.22-5.51,1.55-1.78-.43,1.58-1.91,2.06-2.46-.84-.48-2.28-2.26-2.88-3.12-.39-.57.08-1.23,0-1.37-.26-.49-1.35-.14-1.39-1.05-.15-3.31,4.29-2.11,4.3-2.89l-1.52-2.45,1.3-.97c-.85-.57-1.86-.56-2.73-1.2-3.47-2.52-4.3-5.65-8.2-7.74-1.03-.55-2.37-.49-3.32-1.05-1.2-.7-1.59-2.22-3.23-2.25,2.35-2.85,8.47,3.66,9.4,3.28l.91-1.27c-3.31-4.61-6.61-3.74-11.43-3.68l-1.13-3.49c.39-1.11,3.09.4,2.68-1.05-.24-.86-3.28-1.02-4.13-.6l.31,1.26c-1.86,2.68-3.03-2.33-5.05-1.01.77.91,4.49,3.65,3.65,4.83l-1.71.75c.44,1.23,1.08,1.8-.06,2.9,2.92.61,6.31,1.13,8.11,3.72.63,1.25-1.92.91-2.54.67-3.05-1.18-6.3-2.47-9.43-3.48-2.61-.85-3.84.78-4.45.79-1.14,0-4.18-2.15-2.75-3.57,2.64.95,4.44,3.2,6.52,0l-1.75-1.23,2.09-1.13c-1.49-1.22-3.32-.56-5.03-1.18-.77-.28-1.23-1.08-1.79-1.28-.8-.28-5.9-.32-5.72.84,1.74,3.69,3.6,1.65,5.95,2.22,3.31.8-3.99,1.45-4.34,1.49-1.31.15-2.28,1.63-3.62.1,2.36-6.45-3.7-2.58-5.28-2.73-.94-.09-1.68-1.01-2.87-1.07-.23-.01-4.24.75-4.44.86-1.41.74-3.27,3.69-4.81,4.26-.8.29-4.74-.1-6.12.05-.59.07-1.24.61-1.97.69-2.9.34-5.76-.06-8.63,1.11,1.08,2.17,3.42,1.21,5.13,1.96l-3.87.88.26,1.47c-1.76.93-3.18-.28-4.66-.35-5.25-.26-10.85,1.24-16.17,1.73-3.8.36-8.68-.14-12.02.3-.44.06-4.05,1.12-3.93,1.58l3.21,1.92-2.65-.87-1.04,1.54c-1.15-.03-3.54-1.26-4.45-1.15-.95.12-1.22,1.19-1.86,1.43-2.9,1.1-10.65,1.04-14.48,1.5-2.87.34-4.89-.84-7.45,2.25l4.96,3.14c-3.69-.3-7.63.85-10.93-1.14-1.33-.17-.18,1.68-.45,2.43-.67,1.84-3.27.66-4.72.8-3.74.37-7.49,1.17-11.28,1.22l-.69.51.59,1.06-.61.87c-8.94,1.41-18.51,2.1-27.6,2.16-2.36.01-5.42-.77-7.8-.77-6.34,0-12.69,1.32-18.97,0l-.6.87,2.79.66c-2.67,1.72-4.05-.89-6.54-1.24-4.75-.67-12.96,1.07-17.82,1.06-1.04,0-2.43-.66-3.44-1.02l.42,1.26c-2.89.98-5.15.51-7.99.31-.72-.05-1.6.45-2.24.33-2.27-.42-2.55-2.5-4.62.92-3.08-.82-4.77-3.46-8.22-2.07,3.06,2.94-2.67,1.56-4.32,1.6-4.02.09-11.07,1.3-14.65-.32-1.54-.7-1.88-2.19-3.49-2.72-1.05-.35-13.87.17-15.96.3-.82.05-1.64.8-2.31.72-.44-.06-6.43-2.97-7.78-3.15-3.9-.53-12.57.36-17.21.37-3.86.01-5.63.95-8.94,1.45-5.3.79-14.1-1.06-19.59-.26-.57.08-3.09.83-3,1.42l10,2.44c-.91,2.07-3.31,1.88-5.09,2.62-1.25.52-1.95,1.89-3.52,1.77l-.24-1.42-7.77-1.55c-.73.67-.62,1.04.09,1.7.61.57,1.24.63,1.92,1l-1.57.82-16,.56,1.09.77-2.4,1.58c.09.57,2.34.37,2.93.36,4.66-.04,9.86-.79,14.37.01l-.49-1.64c1.05-.78,5.75,1.51,5.68.73l-.57-1.05c2.89,2.69,8.62-.94,10.71.96.28,1.56-1.05.58-1.77.7-.45.08-4.66.83-2.43,1.57.97.32,4.57,1.12,5.58,1.21,2.26.22,5.97-.72,8.32-.63.59.02,1.78.03,1.69.87-4.55.2-9.11.65-13.65.85-4.53.2-5.09-.28-9.78,1-4.57,1.25-17.53-1.16-23.07-.46l-3.87.83,9.33,1.85c7.58-1.16,15.58,1.05,22.78.95,1.67-.02,5.81-1.04,6.84-.33.28,1.55-1.03.6-1.77.7-6.71.93-15.07.1-21.27,1.15-.39.07-2,.67-1.95.86l2.79.66c-.35.76-.78.97-1.5,1.26-3.12,1.26-11.34-1.11-14.17.16-.61.28-.53,1.34-1.18,1.75-.88.56-3.08.03-4.22.31-4.18,1.02-10.12,1.94-14.62,2.18-4.06.22-9.38-.45-13.35-.23-.63.03-1.24.24-1.86.33l.58,1.05-1.83.71c-2.32-2.28-1.2-.86-3.07-.21-1.79.62-4.44.52-6.33,1.09l-9.61,3.06,1.5.49-.28,1.01,3.15-1.7c1.61.87-1.32,1.09-.75,2.42,1.36,3.15,10.19.04,12.38.5.7.15.75.67.19,1.1l-18.25,1.9c.61.8,1.46.07,2.12.36.58.26,1.07,1.26,2.25,1.8,2.57,1.18,7.95,1.16,10.85,2.63-.39,1.83-2.6.04-3.96,1.45-1,1.04.72,1.48,1.44,1.65,10.03-.3,19.65-1.55,29.24-3.65,6.36-.99,12.23,1.67,18.56.93,1.78-.21,3.18-1.05,4.76-1.23,2.11-.24,2.19,1.38,3.62-1.08,4.26.42,8.88-.93,13.33-.63,8.3.56,16.05,1.37,24.73,1.16,5.79-.14,11.68-.59,17.44-1.08l.5.67-2.38.61,1.16,1.14-3.43,1.19,3.01.8c.39.27-.33,1.09-.55,1.23-.42.26-8.69.53-9.88.49-2.36-.09-4.84-1.9-6.27.29.04.53,5.5-.74,3.96,1.78-.4.36-8.79-.93-10.8-.4-.59.16-.91.08-1.19.81l1.46.69-2.6.46c-1.28-.35,1.09-1.63-1.86-1.84-.55-.04-5.78.4-6.07.52-1.11.43-1.9,2.69-4.67,1.64l-.25-1.48-10.75.93c.35,1.16,4.06-.12,2.77,1.61-2.52.04-4.85-.72-6.88,1.36-1.55-2.31-4.23,1.32-6.73-1.39l-1.22,1.71,3.52,1.48c-2.62.14-5.27,2.79-7.47,3.26-.27.06-5.11.07-5.38.01-1.11-.25-5.32-2.25-6.27-1.92-.09.03-.11.99-.69,1.36-2.22,1.4-5.58.73-8.2.82-4.26.16-8.3.55-12.4.91-2.52.22-9.05-.93-10.2,1.78,1.81,2.84-3.97,2.82-6.02,2.98-2.21.17-5.34.12-7.53-.33l11.12-1.01c-1.39-.86-4.77-2.87-6.27-2.77-1.02.07-1.03,1.11-1.11,1.11-1.68.06-6.02-.87-8.01-.86-1.49,0-11.22.28-11.8.44-1.18.33-1.63,1.57-2.69,2.07l.57.99-1.37,1.02c-1.4-1.52-3.13-2.22-5-2.5,3.52-11.29,6.26-22.29,8.96-33.66.63-2.66,3.27-7.29,3.31-9.41.02-1.16-1.22-1.42-1.12-2.43.38-3.83,4.58-16.19,5.93-20.73.27-.9,4.23-10.76,3.17-11.02-5.2,2.15-4.47,9.91-8.97,13.22l1.7,1.17c-1.98,2.48-5.5,2.8-4.75,6.81l2.31-1.33,1.26,1.15c-1.9,4.2-2.87,12.45-4.98,16.15-.67,1.17-1.85,1.86-2.52,2.91-.7,1.1-1.56,3.82-2.2,4.37-.72.6-2.02-.07-2.62.53-.42.42-.58,3.42-1.29,4.52-.82,1.28-2.19,1.95-3.01,3.31-1.96,3.26-1.59,9.05-6.51,7.62l-5.89,17.04c-.94-.2-1.7-.61-1.97-1.32-2.35,3.1-5.77,1.07-9.05,2.1-1.33-.63-1.57-9.99-3.83-11.14l-1.08.59.16-1.19,1.28-.4-1.97-.78c.53-1.37.1-2.86-.95-3.88-3.72,5.6-3.83.7-7.75-1.5-1.08,1.14.54,3.41.09,4.38-1.06,2.3-5.42,1.14-7.38.94l.69-4.73c-2.85-.23-3.65.45-5.03,2.99.01-2.9-1.92-4.2-1.61-.49-3.05-1.81-1.04,3.34-3.55,2.74-1.27-.3.3-1.4,0-2.28-.22-.65-1.32-1.24-1.71-2-.6-1.19-1.73-3.23-2.14-4.22-.85-2.06-1.06-4.11-1.46-6.26l-4.05,1.09-.81-.9c1.48-1.24-.48-3.86-2.03-2.41-.29-3.36-2.34-1.78-2.71-1.91-2.11-.78-2.5-1.13-4.21-2.16-2.75-1.65-7.49-3.5-7.33-7.2-2.31,1.09-2.32-.62-3.59-1.23-.35-.17-.82.62-1.2.47-1.67-.64-2.9-2.76-4.71-3.35-.98-.32-3.33.3-4.67-1.24l-.16,1.16-2.06-.76c-1.31.55,1.13,2.15-.35,2.35-.82.11-.83-2.19-1.13-2.09l-.93,1.31c-.79.3-2.95-7.93-3.59-8.36-.48-.32-.98.02-.99.93-.01,1.72,2.11,3.01.78,5.42-1.42-.42-.29-1.14-.54-1.53-.05-.08-1.38-1.19-1.47-1.17-1.58.41.45,2.18-.66,2.79l-3.37-1.7-.78,2.05-1.08-.81c-2.11,2.85-2.32,2.33-5.29,2.24-.41-.01-.86.55-.97.53-.5-.12-.59-1.03-.96-1.09-.11-.02-.45.54-.63.52-1.23-.11-5.37-4.26-6.68-5.12-1.15.9.52,1.96.23,2.53-.9,1.79-4.77,2.71-5.35,3.31-.29.3-.71,1.52-1.13,2.16.54.6.81,1.66,1.87,1.9.57,0,2.71-3.4,3.16-1.64-1.64.57,0,1.77-.2,2.09l-2.48.88c-1.49,2.89,1,2.99,1.52,4.33.21.55-.5,1.34-.43,1.79.32,2.14,1.84,2.6.93,5.8-.45,1.57-1.93,2.04-.91,3.22l-.68.52-17.09-.19c-.59.25-.76,3.28-.65,3.68.13.5.92,3.33.99,3.5.2.51,1.08.83,1.1.93.13.88-1.99,1.87-2.75.7.78-1.98-2.42-3.04-4.02-2.19.7.92,3.99-.09,2.78,1.63l-3.01,1.37-1.19-1.02.46-1.99c-2.46-.6-5.41.44-7.61-.77,1.46.12,3.09-1.47,3.72-1.64,1-.27,6.68-.22,7.13-.86-.19-1.34-.13-2.7-1.54-3.35-.92,2.03-2.18.63-2.93.76-7.78,1.33-15.98.28-23.88.39-10.1.14-19.69.87-29.58,1.74-2.21.19-6.47-.66-8.11-.14-.9.28-.78,1.3-1.59,1.49-3.05.69-13.67.62-17.52.73-.76.02-9.39-.51-9.32.38.2.23.4.42.62.6-1.76.06-3.33.03-4.32-.25-1.75-.49-3.43-6.38-7.88-1.92.78,2.32,2.14,1.3,3.22,2.05,1.61,1.11,2.43,2.83,3.76,4.12-2.68,4.63-7.16,4.05-11.2,6.59l-3.43-2.16,1.37-1.42c-.96.03-3.3-1.6-3.73-1.57-.14,0-1.02,1.39-2.35,1.71-1.36.33-1.93-.43-2.91-.39-.66.03-1.56.91-2.24.92-1.09.01-6.19-2.75-6.97-2.83-2.85-.29-7.46,3.21-10.71,2.78-2.38-1.48,4.84-4.98,2.7-7.26-.93-.45-1.95.54-2.65.47-.9-.08-7.21-.86-7.58-.98-1.3-.44-1.98-1.74-3.47-2.06-1.57-.34-2.64.72-3.15.7-.12,0-.35-1.44-1.6-1.74-.93-.22-6.81.02-7.81.29-1.28.35-1.63,2.06-4.2,1.6-2.7-.48.48-2.55-3.23-3.62-.82-.24-4.05.76-4.47.22l.38-2.74-3.27-.02.66-1.3c-2.34-1.58-7.89,4.25-10.31,1.55l.15,1.4c-.47,1.81-6.3-.34-7.26-.29-.73.04-1.33,1.09-2.32,1.05-3.38-.13-3.35-2.16-4.71-3.1-3.41-2.37-6.17-.67-9.34,1.23l.47-1.58-3.23-2.06c-2.35,2.71-7.86.98-11.62.84-3.1-.11-1.73.44-2.82.54-1.03.1-4.13-1.89-5.99-.86-.56.5,1.95,5.67-4.6,5.47-1.82-.06-2.14-2.66-4.36-.49.53-1.48-1.68-3.31-1.66-3.52.04-.49,1.38-.62.51-1.33l-1.74.7-.21,1.5-5.74.64.07-2.08c-3.93,3.09-5.41-.48-8.92-1.14v-2.04c-1.27,1.22-2.62-.56-3.75-.73-.87-.13-1.62.57-2.51.45-1.52-.2-3.11-1.15-5.07-.7l2.62-1.95-6.1-1.58-1.02.78.73,1.04c-5.16-.96-5.59,9.86-10.23,2.72-1.03,2.59-3.81.6-6.07,1.27l-1.32-3.46-2.71.71.66-1.31-2.22-.78,6.04-2.87-2.71-2.74c1.09-2.13,2.33-3.23.12-5.14l1.38-1.43c-1.56-.56-3.26-.16-4.33,1.16-.32.39.43,1.28.19,1.44-1.34.89-6.77,2.36-8.4,1.42.18-.36,5.81-2.29,4.01-3.39-1.19-.72-1.78,1.07-2.97,1.39-1.2.32-3.26-.53-3.95-.47-1.01.08-1.99,1.16-3.13,1.29-.86.1-5.9-1.39-5.9-2.93-.05-.66,3.71-5.36,2.28-6.69l2.74.4c-1.1-1.33-2.84-3.16-4.35-3.92-.16-.08-3.24-.81-3.41-.77-.94.21-1.24,1.63-2.39,2.09-1.14.46-2.82,0-4.75.91-2.41,1.14-2.55,2.8-3.02,3.42-.2.26-3.05,1.82-3.47,1.93-.21.05-1.53-3.54-1.19,1.71l-2.89-1.11-.96.8c1.46,2.65-3.9,2.49-5.36.66-1.98,3.88-4.82,4.62-8.79,5.68l1.17,1.59c-1.25,1.39-1.43.23-2.23-.8l-4.04,3.41.52,2.89,2.06.52c-.15,1.63-9.33,3.61-10.12,6.7l-1.44-1.35c-1.48,1.07-2.82,1.33-2.11,3.24l-3.15.66.85,3.44c-2.38-.31-3.6,2.12-4.78,2.59-.88.35-1.89-.46-2.66.52l2.02.53-.71,1.75-4.2-.11c-1.02,1.84,2.28,1.6.52,2.88-1.65,1.2-4.68,1.35-5.26,1.76-1.24.88-.85,3.95-4.74,2.41l-1.05,2.41-.64-1.97-1.72.45c1.07,3.43-2.36,2.98-4.13,5.45-.99,1.39.91,2.08-3.29,2.58l.31,2.16c-1.65.27-3.02-1.26-4.23-1.5-1.12-.21-5.47.22-6.09-.02-.87-.35-1.07-1.45-2.78-1.83-2.91-.65-3.57,1.27-4.91,1.63-1.45.4-4.69-.8-6.39.26l.47-1.56c-1.56.42-2.1-1.57-2.6-1.77-1.83-.72-3.54,1.54-4.94-2.85l-.63,2.84c-3.7.07-6.37-.52-9.96.71-.91.31-1.37,1.38-2.1,1.65-1.32.48-2.92-.6-4.11-.35-.89.19-1.95,1.8-3.61,1.75-1.48.1-1.47-1.03-1.15-2.05.43-1.42,2.84-1,2.02-2.24l-3.02,1.42.66-1.31c-1.68-1.51-4.23,1.18-5.73.88-.19-.04-.45-1.45-1.63-1.7-1.86-.39-3.69,1.84-4.97-1.44-.51,1.7-2.76,2.31-4.3,1.95-1.49-.35-.57-2.72-3.86-2.22-2.03.31-2.71,1.22-3.91,2.72l-.64-1.96c-1.64.54-3.99,1.84-5.66,1.79-2.48-.07-4.32-1.02-6.28-1.67-2.58-.85-2.21-.28-3.93.52-.39.18-1.16-.22-1.86.26-.37.26,1.22,1.7-.52,2.05-1.87-4.97-4.37-3.96-8.53-4.27-1.16-.09-4.98-.71-5.26-.68-1.35.14-2.69,1.62-4.56.64,1.1,2.26-2.09,2.85-3.81,2.02l2.62-1.97c-2.25-1.64-4.16.82-5.65,1.18-2.26.56-4.56.08-6.43,1.27-1.23-1.97-.09-4.25-2.48-5.51l-1.7,2.1,2.02.53-.99,1.95-.92-1.34c-4.42,2.25-6.41-.31-9.17-3.39l-1.57,1.16,1.17,1.58c-3.4,2.37-3.52-.78-5.1-1.94-1.87-1.37.06,1.7-1.2,1.71-2.45-1.88-6.07-.02-6.29-3.49-3.38,2.9-3.44.89-5.68.37-.3-.07-4.74-.23-6.05-.35-5.11-.47-10.44-.22-15.56-.95-.45,1.87-.19,1.26,1.19,1.41,2.08.23,4.71.07,6.75.33,3.27.42,6.96,1.76,10.14,1.14v1.61s-13.8-2-13.8-2l-1.1,1.24,14.29,1.63c-.48,1.07-3.92.81-4.79.7-4.5-.57-9.96-2.34-14.56-1.43l.8-2.22-2.23-.78.79-2.23-1.44,1.37-1.04-.33c1.68.86-1.84,3.06-2.54,3.14-1.92.2-4.24-2.64-5.27-2.65-1.11-.02-3.54,1.85-5.44,1.92-1.06.03-8.18-1.71-9.42-2.12-.47-.15-.99.12-1.35.42l1.18-1.7c-1.97-1.23-3.61.97-5.38,1.56l.12,2.36c-.06-2.92-1.48.37-3.04-.15l-2.78-3.29c-1.01.11-.48,1.63-1.71,2.1-1.55.59-3.57-.69-4.61-.62-.82.06-1.61.96-2.24.95-3.98-.05-7.88-2.08-10.72-1.89-2.25.16-3.66,2.52-5.71-1.15l-1.71,2.1,1.51.9c-.22,1.91-1.44.28-2.35.21-3.48-.26-8.75.89-10.7-2.34-1.39,3-6.25-.5-9.2.35-1.06-.49.15-2.91-1.48-2.62-1.81.32,1.4,1.87-.32,2.31-.58.15-.69-.55-1.08-.51-5.38.44-4.7-.46-9.29-2.31-1.91-.77-3.95-1.27-5.54-1.86-.18-.07-.81-1.67-1.52-1.13-2.76,2.09,6.26,3.42,6.14,4.41-1.51,0-3.03.61-4.53.54-2.31-.1.36-.87-.44-1.73-.91,1.02-2.47-.27-2.76-.23-1.31.17-4.4,4.8-5.79,5.75-.73.49-2.22.73-2.23.85,0,.13.84.95.83,1.75-.03,2.46-1.2,6.59-3.18,8.25.89.88,2.62,1.81,2.03,3.31l-2.29-.33.47-1.56c-5.05,1.41-2.62,6.14-4.01,8.67-.04.07-.22.31-.47.63-3.05-.87-2.12-6.35-4.23-7.14-.7-.26-5.55,1.48-7.01.37.83-1.95-1.37-2.14-1.45-4.02.37-.45,5.07.85,5.7-1-2.64-.94-2.98-4.36-4.33-5.74-.72-.74-4.6-2.32-4.77-2.88,2.61.06,5.43-2.1,7.38-2.55,1.81-.42,4,1.35,5.61-.38,1.47-.9-1.52-7.89-2.14-8.58-.46-.52-4.87-4.47-5.29-4.7-1.96-1.07-4.85.99-6.95.64-1.98-.32-3-2.01-4.48-2.35-1.28-.29-2.51.25-3.76.17-1.22-.08-2.23-1.11-3.5-.81-2.3.54-4.44,3.01-5.97,3.95-.89.55-5.8,1.41-5.49,4.09.51,4.4,5.94,2.84,8.37,4.71-.86,1.72-1.07.51-2.04.3-1.28-.27-2.51-.82-3.86-.71l-1.04.86.88,1.97-2.63,2.48c2.84.66,4.7.21,6.92,2.82l-1.91,1.44c-1.91-2.56-6.58-1.5-7.82-2.25-1.66-1.02-1.64-3.74-2.95-4.57-1.55-.98-5.47-.81-6.74-1.36-1.83-.79-1.96-2.9-3.31-3.65-.91-.5-1.62.34-2.37.22-3.22-.55-1.43-2.25-1.81-3.56-.23-.8-1.31-1.44-1.57-2.37-.58-2.1-.38-5.47-1.63-7.73l-1.44,1.36c-2.63-.7-1.96-2.86-2.25-3.3-.82-1.23-3.46-4.03-3.73-4.8-.17-.48.53-1.49.1-1.95-3.27-3.46-5.3,3.95-1.9,6.17-1.95.55-9.91,1.05-11.13-.03-.61-.55.11-3.64-2.02-4.07-2.05-.42-3.49,2.58-6.84,1.61-2.16-.62,2.04-2.26,2.66-2.91-1-.63-2.69-2.9-3.37-3.98-.45-.72.17-1.5.08-1.69-.3-.62-1.65-.24-1.65-1.36-.01-4.07,5.38-2.37,5.43-3.33l-1.74-3.09,1.65-1.12c-1.02-.75-2.25-.79-3.29-1.61-4.13-3.27-4.99-7.16-9.67-9.93-1.24-.73-2.88-.72-4.02-1.46-1.43-.93-1.83-2.81-3.85-2.93,3.03-3.38,10.21,4.93,11.37,4.52l1.18-1.51c-3.82-5.83-7.93-4.94-13.85-5.12l-1.21-4.35c.54-1.34,3.78.66,3.35-1.14-.25-1.07-3.98-1.43-5.04-.96l.32,1.56c-2.43,3.2-3.6-3.02-6.15-1.5.9,1.16,5.33,4.71,4.23,6.13l-2.14.83c.48,1.53,1.23,2.27-.23,3.56,3.56.9,7.69,1.72,9.77,5,.71,1.57-2.41,1.02-3.16.69-3.68-1.62-7.6-3.36-11.4-4.77-3.16-1.18-4.76.76-5.5.73-1.4-.05-5.02-2.85-3.2-4.53,3.19,1.31,5.29,4.17,8,.33l-2.08-1.6,2.63-1.28c-1.77-1.58-4.05-.87-6.12-1.71-.93-.38-1.46-1.39-2.13-1.66-.97-.39-7.23-.71-7.07.73,1.95,4.63,4.33,2.22,7.19,3.04,4.02,1.15-4.98,1.57-5.4,1.6-1.61.12-2.88,1.89-4.45-.06,3.24-7.8-4.41-3.36-6.34-3.63-1.15-.16-2.01-1.33-3.47-1.46-.28-.02-5.24.7-5.5.82-1.77.83-4.21,4.36-6.13,4.98-1,.32-5.82-.37-7.52-.26-.73.05-1.55.68-2.46.75-3.58.26-7.07-.38-10.66.91,1.21,2.72,4.14,1.66,6.2,2.68l-4.79.87.25,1.82c-2.21,1.05-3.89-.51-5.71-.68-6.43-.59-13.39.95-19.95,1.28-4.69.24-10.65-.62-14.78-.26-.54.05-5.03,1.16-4.91,1.74l3.84,2.53-3.21-1.21-1.35,1.84c-1.42-.1-4.28-1.74-5.4-1.64-1.18.1-1.56,1.4-2.36,1.66-3.62,1.2-13.13.72-17.87,1.08-3.54.27-5.96-1.29-9.27,2.37l5.93,4.12c-4.51-.56-9.41.65-13.37-1.97-1.62-.28-.31,2.05-.68,2.96-.92,2.22-4.05.64-5.84.74-4.61.26-9.26,1.05-13.92.9l-.87.59.67,1.34-.79,1.03c-11.05,1.27-22.85,1.61-34.02,1.2-2.9-.11-6.62-1.23-9.54-1.35-7.78-.32-15.66.95-23.3-.98l-.79,1.03,3.39.95c-3.37,1.97-4.93-1.31-7.97-1.87-5.8-1.07-15.97.63-21.95.36-1.28-.06-2.95-.94-4.17-1.43l.45,1.57c-3.6,1.05-6.35.36-9.83-.04-.88-.1-1.99.47-2.77.29-2.76-.64-3-3.21-5.73.89-3.74-1.17-5.67-4.5-9.99-2.97,3.6,3.77-3.36,1.78-5.38,1.74-4.95-.1-13.67,1.02-17.98-1.16-1.85-.93-2.19-2.79-4.14-3.52-1.28-.48-17.04-.51-19.62-.47-1.01.02-2.05.9-2.87.76-.53-.09-7.74-3.98-9.39-4.28-4.77-.86-15.46-.21-21.16-.44-4.74-.19-6.96.88-11.06,1.31-6.56.69-17.26-2.05-24.05-1.35-.7.07-3.84.86-3.76,1.58l12.16,3.52c-1.23,2.49-4.16,2.14-6.39,2.95-1.56.57-2.49,2.22-4.41,1.99l-.21-1.76-9.46-2.32c-.93.78-.82,1.24.02,2.1.72.73,1.49.84,2.31,1.32l-1.98.92-19.68-.15,1.3,1-3.02,1.81c.09.7,2.86.57,3.58.6,5.73.19,12.15-.45,17.66.77l-.51-2.04c1.33-.9,6.98,2.16,6.94,1.19l-.64-1.31c3.41,3.45,10.63-.71,13.11,1.75.26,1.93-1.32.66-2.21.77-.56.07-5.76.78-3.06,1.8,1.18.44,5.56,1.61,6.79,1.78,2.77.39,7.38-.57,10.25-.33.73.06,2.19.13,2.03,1.16-5.6,0-11.22.32-16.82.33-5.58,0-6.23-.61-12.06.72-5.67,1.3-21.47-2.35-28.31-1.78l-3.46.59v.55l10.02,2.44ZM1912.15,118.11c1.83-.58,2.72-1.96,4.9-1.56-1.63,2.18-5.18,2.52-7.82,3.43-.77.27-1.31.9-2.1.05.99-2.12,3.73-1.51,5.02-1.92ZM1895.18,27.64c.56-.28.6-1.42,1.25-1.37.82.07,1.66.95,2.53,1.16,1.07.25,2.07-.33,2.94.41-2.55,2.44-6.04,1.08-9.13,1.45l-5.42.75c2.18-1.58,5.42-1.2,7.83-2.39ZM1840.98,37.58c2.64-1.64-2.49-1.23-2.97-1.68-.44-.41-.33-1.07.53-1.27,3-.71,9.22,2.13,11.27,4.35l-1.19,1.74,1.6,1.44c-2.62-.08-11.24.25-12.86-1.48-.13-.14.45-1.99-1.42-2.32,1.33-1.03,3.83-.04,5.03-.78ZM1780.32,125.64l10.3.85c-4.11.8-9.25.43-13.46-.31l3.16-.54ZM1557.79,45.09l18.77-1.1,2.25.83c-3.7,1.5-8.02-.4-11.61,1.02l-9.42-.75ZM1568.68,48.15l2.39-.55,10.19.24c-3.91,1.33-8.54,1.01-12.58.31ZM1589.43,49.64c-.27-.09-.8-.38-.5-.66l3.12-.75-.72-.83c1.6.14,11.35-1.41,11.69.04-1.34.12-1.59,1.52-2.52,1.77-.64.17-10.54.59-11.07.43ZM1613.27,79.27c-.72-1.17-2.13-1.74-3.5-1.41l2.33,1.3c-2.65,3.24-6.7,4.27-10.57,3.03.72-1.56,2.37-1.32,3.73-1.62-.91-2.28-10.77-.32-11.21-1.66l.91-.56-.58-.83c2.62-1.39,5.03-.43,7.37-.59,3.76-.25,9.01-1.55,12.78-.32.71.23,1.34.54,1.9,1.03l-3.16,1.64ZM1625.55,120.46l2.39-.55,7.53.33c-3.04.85-6.84.86-9.92.22ZM1663.39,125.32c-2.61-.52-5.76.52-8.02-.94-.41-1.71,6.67-.01,7.09,0,2.99.11,6.1-.85,9.04.21l-8.11.73ZM1657.68,120.14l2.39-.56,10.63.56c.15.64-12.03.77-13.02,0ZM1693.79,47.07c1.51-1.72,4.54-2.17,6.37-.75.19.8-6.28,1.34-6.37.75ZM1739.96,40.54c.78-.04,1.53-.72,2.17-.73,1.16-.03,3.79,1.47,4.61,1.15.56-.22,1.06-1.34,1.83-1.55l-.56-.98,4.87.48c-1.46.52-2.71.44-3.44,2.14,1.47.49,4.18-.78,4.87.47-2.08,1.23-3.48.25-4.94.26-3.41.02-7.19.33-10.71.07-1.31-.1-3-.22-4.17-.84,1.67-.7,3.69-.37,5.47-.47ZM1717.34,39.45c-.58,1.27-.68.91-1.55,1.07-2.05.36-4.98-.22-6.88-1.11.82-.85,8.38-.38,8.43.04ZM1703.8,124.03c.89.18,1.2,1.08,1.77,1.22.85.21,8.4-.99,10.51-1.02,5.32-.05,10.84.48,16.06.83,1.88.13,3.02-.81,5.2,1.27-1.69.02-3.36.93-4.98,1.09-9.84.96-19.97-.84-29.71-1.16-2.06-.07-4.36,1.29-6.31.04l2.86-2.25,1.74,1.26c1.15.24,1.69-1.55,2.87-1.31ZM1694.3,39.1c.71-.09,5.27.77,5.99,1.45l-6.6.58-.62-1.4c.48,0,.86-.59,1.23-.63ZM1675.9,42.37l10.58.25c.14.61-11.41,1.09-12.45,1.06l1.87-1.31ZM1689.33,45.68c1.25-.1,2.25-1.56,3.89.35-.94,1.38-2.45,1.19-4.18,1.26-10.07.44-20.5-.08-30.4-.72-4.22-.27-8.46,2.93-12.8.18.43-1.05,1.17-.66,1.98-.71,13.66-.86,27.93.76,41.51-.36ZM1622.37,43c5.78-.2,11.66-.74,17.5-.7,3.55.02,8.1-.01,11.55.28.77.07,1.56-.17,2.19.5-7.22.74-14.68.1-21.98.27-5.48.13-12.57,1.46-17.9,1.12-1.13-.07-2.43-.3-3.35-1.03,3.9-.98,8.16-.31,11.99-.45ZM1607.14,45.75c4.09-.36,14.14-.31,17.75,1.06.73.28,1.76,1.45,2.84,1.61-7.28.69-16.06,1.28-22.9-1.69.43-.89,1.46-.91,2.31-.98ZM1589.51,43.57c1.46-.05,2.92.31,4.26.26,3.45-.13,7.26-1.08,10.52-.07-5.21,1.66-10.43.88-15.78.79-1.08-.02-2.41,1.21-3.63-.04.9-.99,3.34-.89,4.62-.94ZM1500.56,122.29c.14.82-2.44,1.01-3.06,1.1-.99.14-9.25.62-9.39-.04,1.06-1.25,12.34-1.69,12.45-1.06ZM1432.53,106.4c1.78.21,4.34.38,5.35.59.71.15,1.32.23,1.86.78-1.9,1.92-4.87,4.07-7.73,2.75-.36-.17-.57-.46-.72-.78.41-1.12.83-2.23,1.24-3.35ZM1387.36,86.79l3.81,1.41-.79,2.65c-.25.05-3.56-3.1-3.02-4.05ZM1357.29,87.89l.47-1.61c1.43.62,2.7,1.06,1.87,2.92l-3.4-.73-.19,1.05-2.16-.19-1.01-2.58c1.68-1.1,3.06.07,4.41,1.14ZM1337.74,87.9l2.31.98c.79-1.25.87-1.85,2.46-2.2l-2.49-1.1c.75-.86,3.79.17,3.96.84.09.37-1.61,1.22-.25,1.75l3.94-.49-3.08-1.18,4.52-.41.41,2.22,2.57.5-12.61,1.26c-1.01-.31-3.08-.96-1.73-2.17ZM1228.55,85.7c.76-.1,1.57-.19,2.07-.06,1.2.31,2.07,1.19,3.33,1.47,3.02.67,7.39-1.09,7.55,3.07l22.55.28,1.72-1.09.5-2.62,1.06,1.05-.57.59c4.95,4.08,9.15,1.25,3.54-2.75.73-1.32,2.31-.71,3.5-.81l-.19,1.12,1.4.38-1.35,1c1.52,1.09,1.94,3.71,4.2,3.64.66-.02,1.17-.95,1.8-1.08.93-.2,1.88.05,2.49-.11,2.17-.58,3.67-2.07,6-1.76l-.93-4.23c1.66,2.08,5.24,2.92,7.08,1.04-2.08.56-2.49-1.05-3.58-1.52-1.14-.49-2.97.77-4.07-.58,1.52-.53.63-1.95,1.6-2.57,3.21-2.03,9.71-1.36,13.51-1.84-.91,2.51,2.25,4.65,2.6,5.87.02.06-.1.44-.28.95-.03.01-.06.02-.09.03-.1.05-.08.16-.03.3-.35.93-.83,2.11-1.06,2.62-.17.17-.34.34-.52.5-.65.33-1.69.63-2.05,1.52-.06.04-.13.08-.19.11l-2.21-1.24c-.08.74-.11,1.53.03,2.28-.56.21-1.13.39-1.71.51l1.05.85-.78.58c-1.51-2.51-2.18-.76-3.4-.73-1.3.02-3.65-.38-4.68-.14-3.43.78-12.38,5.73-15.89,2.57-.81-.73-.9-2.28-1.9-2.51-1.57-.36-3.58,1.17-5.37,1.21-2.03.04-5.39-1.9-7.77-1.68-1.27.12-1.42,1.17-2.92,1.11-1.65-.07-1.66-1.31-2.23-1.32-2.92-.05-8.79,4.57-11.6,4.48-.22,0-1.61-2.28-3.76-1.59l.47-1.56c-2.11,2.68-5.35-.73-6.96-.34-.45.11-.36,1.96-1.24.31-.97-1.82-.36-3.89-3.19-5.39l2.5-1.94ZM1205.15,82.44c3.69.39,10.22-.95,13.64-.31-1.47.38-2.37.59-4.5,1.34-3.22,1.14-3.21.56-5.79.64-.68.02-1.96.3-2.9.5l-1.01-.9.57-1.27ZM1199.73,83.23c.35.13.66.29.97.47-.43.22-.87.46-1.3.69l.34-1.16ZM1196.83,83.81c.73.17,1.43.43,2.07.82-1.22.56-2.38.78-3.27-.5l1.2-.32ZM894.58,98.94c.93-3.17-4.83.42-3.78-2.87,1.66-1.25,6.45,1.14,6.81-.2l-2.22-.78c.95-1.31,1.91.14,2.79.09,1.85-.11,3.46-.76,4.56-2.29,1.65,1.4-1.32,2.9-1.97,3.93.99.83,5.16-.85,5.3-1.58.07-.35-1.38-1.55-.6-2.69,2.34-1.76,3.27-2.99,5.93-1.22l-5.51,2.48,2.95.66-1.39,1.45,1.78,2.37c-.65,1.71-4.3,1.99-5.86,1.49.96,3.3-.96,1.11-2.75,1.23l1.82,5.18-5.05-.73c1.03-.9,2.1-1.34,1.84-3l-4.26,1.95,1.44,1.37c-3.77.87-5.63-2.31-7.32-5.03,2.08-2.4,2.14-2.64,5.5-1.8ZM817.57,98.25l-.56,1.31.42,1.23-8-1.39,8.14-1.15ZM763.04,100.82c.08.47-.1.6-.53.39l.53-.39ZM736.42,96.87c1.61-.19,3.34,2.62,3.61,2.69.09.02.42-1.2,1.33-1.43.71-.18,3.99-.19,4.96,0-3.51,2.85-7.52,2.54-11.73,1.79l1.83-3.05ZM697.76,103.22l-10.49-.34-2.35-1.54c4.43-.64,9.16-1.05,12.84,1.88ZM674.61,99.61c.08.47-.1.6-.53.39l.53-.39ZM659.01,97.33c.08.47-.1.6-.53.39l.53-.39ZM641.78,109.34c.08.47-.1.6-.53.39l.53-.39ZM570.03,117.56l-.21.29c-1.3.32-2.72.15-3.43.65-.35.25-.65.75-.96,1.33l-1.69-.49c.08-2.11,6.28-2.93,6.31-1.78ZM554.49,95.78c3.23.71,3.52,4.12,4.86,6.59-2.64.55-4.49-1.31-6.43-2.8l1.57-3.78ZM551.74,120.93c.07.21-.86,2.39,1.24,3.81l-5.96-.84c1.13,0,3.75-5.72,4.72-2.97ZM546.99,113.14c1.73-.54-.47,4.83-.7,5.23-1.4-.73-3.08-.6-2.92-2.64,1.79.02,2.72-1.19,3.63-2.6ZM543.92,104.19c.29,1.31-7.9,1.79-8.39.18,1.11-4,6.01-2.34,8.39-.18ZM466.02,58.61c.71-.31.81-1.72,1.61-1.62,1,.13,1.99,1.26,3.04,1.55,1.3.37,2.56-.3,3.59.66-3.26,2.87-7.47,1.01-11.29,1.3l-6.7.63c2.76-1.82,6.72-1.18,9.74-2.53ZM398.92,67.97c3.33-1.88-3-1.64-3.56-2.21-.52-.53-.35-1.33.72-1.53,3.72-.71,11.22,3.1,13.61,5.93l-1.56,2.08,1.89,1.85c-3.21-.24-13.82-.29-15.71-2.49-.16-.18.66-2.41-1.62-2.92,1.69-1.19,4.71.16,6.22-.7ZM274.68,66.32c.96-.01,1.91-.8,2.7-.79,1.43.02,4.58,2.01,5.6,1.65.7-.24,1.37-1.59,2.33-1.81l-.63-1.24,5.96.84c-1.82.56-3.35.4-4.34,2.45,1.78.67,5.17-.74,5.96.83-2.62,1.4-4.29.12-6.09.06-4.19-.15-8.85.03-13.16-.48-1.61-.19-3.67-.43-5.08-1.25,2.09-.77,4.55-.26,6.74-.29ZM246.96,63.79c-.78,1.52-.88,1.09-1.95,1.23-2.54.34-6.1-.54-8.4-1.72,1.05-1,10.31-.03,10.35.49ZM88.75,68.76l3.87-.75-.84-1.06c1.96.25,14.01-1.14,14.36.66-1.65.08-2.03,1.79-3.19,2.05-.8.18-12.98.18-13.62-.06-.33-.12-.96-.51-.58-.84ZM217.64,71.91c1.95-2.04,5.69-2.43,7.87-.58.19.99-7.79,1.31-7.87.58ZM218.68,62.16c.88-.07,6.43,1.22,7.29,2.1l-8.14.37-.69-1.76c.59.01,1.09-.68,1.54-.71ZM195.91,65.2l12.98.86c.14.76-14.08.74-15.35.64l2.37-1.51ZM212.23,69.97c1.54-.06,2.85-1.8,4.76.63-1.23,1.65-3.08,1.33-5.2,1.33-12.4,0-25.17-1.17-37.3-2.47-5.17-.56-10.54,3.16-15.73-.45.59-1.27,1.48-.75,2.47-.77,16.82-.34,34.26,2.39,51.01,1.74ZM130.12,63.17c7.12.05,14.36-.3,21.54.06,4.35.22,9.95.41,14.17.95.95.12,1.93-.12,2.67.73-8.91.53-18.04-.64-27.01-.82-6.74-.13-15.52,1.14-22.04.44-1.39-.15-2.97-.5-4.06-1.44,4.84-1,10.04.05,14.75.08ZM111.28,65.75c5.05-.22,17.39.36,21.74,2.24.88.38,2.09,1.87,3.41,2.13-8.97.47-19.8.73-28.04-3.28.57-1.08,1.84-1.04,2.89-1.09ZM118.73,104.04c.86.32,1.62.73,2.28,1.36l-3.96,1.84c-.82-1.47-2.52-2.25-4.22-1.92l2.79,1.72c-3.42,3.84-8.45,4.89-13.14,3.16.96-1.87,2.98-1.5,4.67-1.8-1-2.84-13.22-.96-13.69-2.62l1.14-.64-.67-1.05c3.3-1.57,6.2-.27,9.09-.34,4.63-.11,11.15-1.43,15.71.28ZM89.74,62.15c1.79.01,3.57.53,5.22.54,4.24.02,8.97-.94,12.93.47-6.49,1.77-12.86.53-19.42.14-1.32-.08-3.03,1.36-4.45-.23,1.16-1.17,4.15-.92,5.72-.91ZM79.38,66.97c-4.87,1.42-10.55.79-15.47-.28l2.96-.55,12.51.83ZM50.69,62.36l23.11-.37,2.72,1.14c-4.63,1.65-9.83-.91-14.31.64l-11.53-1.42Z"/>
</svg>