<?xml version="1.0" encoding="UTF-8"?>
<svg id="Lager_1" xmlns="http://www.w3.org/2000/svg" version="1.1" viewBox="0 0 143.78 39.48">
  <!-- Generator: Adobe Illustrator 30.3.0, SVG Export Plug-In . SVG Version: 2.1.3 Build 182)  -->
  <path d="M126.67,28.57l2.16-11.39h5.13l1.24-6.1h-5.13l1.73-8.91h-9.83l-1.73,8.91h-3.51l-.67,3.27c-2.25-2.78-5.98-4.08-10.41-4.08-3.75,0-7,1.09-9.6,2.96l.48-2.47c-.32-.16-1.08-.27-1.89-.27-3.4,0-6.26,1.51-8.64,5.18h-.16l.92-4.59h-12.38l.16-.97c.43-2.65,2.21-3.19,4.48-3.19.43,0,.81,0,1.4.05l1.3-6.59c-1.51-.22-3.08-.38-4.97-.38-3.19,0-6.26.49-8.53,2.32-1.78,1.4-2.92,3.78-3.51,6.8l-.38,1.94h-3.35l-.87,4.26c-.83-1.29-1.91-2.37-3.25-3.23-2-1.24-4.43-1.94-7.83-1.94-8.6,0-14.8,6.23-15.62,14.63-.71-1.77-1.94-3-3.67-3.72v-.16c5.08-1.73,7.78-4.75,7.78-10.53,0-7.13-6.21-10.37-13.72-10.37H7.45L0,38.61h11.12l2.59-13.5h4.86c3.67,0,4.75,1.89,4.75,5.08,0,2.05-.16,4.43-.16,5.94,0,.97.11,2,.43,2.48h11.23v-.59c-.43-.32-.76-1.19-.76-2.65-.03-1.22,0-2.71.02-4.07,1.88,5.27,7.07,8.07,13.49,8.07,3.13,0,5.89-.7,8.53-2.32,1.61-.99,2.96-2.33,3.96-4.01l-1.08,5.58h10.04l4.1-21.44h2.82l-4.16,21.44h10.04l2.05-10.69c1.06-5.45,3.31-8.14,7.16-8.6-1.1,2.36-1.71,5.06-1.71,7.95,0,8.86,6.64,12.2,14.04,12.2,5.61-.04,10.47-2.67,12.92-7.54-.26,4.77,2.45,7.22,8.41,7.22,2.21,0,3.83-.38,5.02-.7l1.4-7.13c-.59.05-1.4.11-1.94.11-2.27,0-2.92-.7-2.54-2.86ZM21.22,17.17h-5.94l1.62-8.42h5.18c2.92,0,4.32,1.4,4.32,3.73,0,3.29-2.38,4.7-5.18,4.7ZM48.99,16.96c2.92,0,4.05,2.27,3.94,4.97h-9.34c1.03-3.67,3.35-4.97,5.4-4.97ZM51.53,30.4c-.7,1.51-2.27,2.11-3.94,2.11-3.67,0-4.64-2.59-4.7-5.18h18.3l-.6,3.08h-9.06ZM62.16,22.27c-.1-1.88-.45-3.59-1.07-5.09h2.06l-.99,5.09ZM108.31,27.49c-.81,3.29-2.75,4.86-5.02,4.86-2.92,0-3.83-2.32-3.83-4.97,0-4,1.73-10.04,5.99-10.04,2.54,0,3.24,1.73,3.4,3.94h9.37l-1.18,6.21h-8.73ZM118.32,20.77c-.07-1.33-.3-2.53-.68-3.6h1.37l-.69,3.6Z"/>
  <polygon points="141.2 19.03 140 21.64 139.96 21.64 139.74 19.03 137.15 19.03 136.14 24.33 137.85 24.33 138.42 21.41 138.46 21.41 138.75 24.33 140.05 24.33 141.54 21.41 141.57 21.41 141.01 24.33 142.76 24.33 143.78 19.03 141.2 19.03"/>
  <polygon points="136.47 19.03 131.73 19.03 131.44 20.61 132.84 20.61 132.12 24.33 134.03 24.33 134.75 20.61 136.18 20.61 136.47 19.03"/>
</svg>