<?xml version="1.0" encoding="UTF-8"?>
<svg id="Lager_1" xmlns="http://www.w3.org/2000/svg" version="1.1" viewBox="0 0 1298.84 315.64">
  <!-- Generator: Adobe Illustrator 30.3.0, SVG Export Plug-In . SVG Version: 2.1.3 Build 182)  -->
  <defs>
    <style>
      .st0 {
        fill: #fff;
      }
    </style>
  </defs>
  <path class="st0" d="M1044.64,5.51l-8.63,44.68c-6.49-10.31-14.71-19.33-24.84-26.88-20.76-15.68-48.72-23.3-87.7-23.3-65.77,0-116.33,36.12-143.22,88.57,0-.57.03-1.14.03-1.72,0-55.92-48.72-81.35-107.61-81.35h-350.97l-54.26,281.12c-.06-1.15-.1-2.35-.1-3.61-.42-15.68.42-36.86.42-50.42,0-32.62-11.86-52.54-34.32-61.86v-1.27c39.83-13.56,61.01-37.28,61.01-82.62,0-55.92-48.72-81.35-107.61-81.35H58.47L0,308.44h87.28l20.34-105.92h38.13c28.81,0,37.28,14.83,37.28,39.83,0,16.1-1.27,34.74-1.27,46.6,0,7.63.85,15.68,3.39,19.49h165.36l21.18-110.58h117.36l13.13-67.79h-116.93l9.32-50.84h135.49l-44.24,229.21h87.28l20.34-105.92h38.13c28.81,0,37.28,14.83,37.28,39.83,0,16.1-1.27,34.74-1.27,46.6,0,7.63.85,15.68,3.39,19.49h88.12v-4.66c-3.39-2.54-5.93-9.32-5.93-20.76-.42-15.68.42-36.86.42-50.42,0-32.62-11.86-52.54-34.32-61.86v-1.27c18.22-6.2,32.53-14.55,42.7-26.1-2.17,12.17-3.3,24.73-3.3,37.54,0,88.97,56.77,134.73,140.24,134.73,68.21,0,130.92-37.28,146.17-119.9h-88.97c-7.2,31.78-28.81,47.88-56.77,47.88-38.13,0-51.69-30.5-51.69-64.82,0-50.42,22.03-106.34,74.57-106.34,30.93,0,44.49,19.07,44.91,45.33h87.7c-.56-13.5-2.44-26.11-5.72-37.71h64.19l-44.06,228.36h86.85l44.06-228.36h84.31l14.41-74.57h-254.21ZM166.5,140.24h-46.6l12.71-66.09h40.67c22.88,0,33.89,11.02,33.89,29.23,0,25.84-18.64,36.86-40.67,36.86ZM652.32,140.24h-46.6l12.71-66.09h40.67c22.88,0,33.89,11.02,33.89,29.23,0,25.84-18.64,36.86-40.67,36.86Z"/>
</svg>